<!-- by TradingView --><svg width="18" height="18" viewBox="0 0 18 18" xmlns="http://www.w3.org/2000/svg"><path fill="#F0F3FA" d="M0 0h18v18H0z"/><path d="M9 5c3.31 0 6 1.8 6 4s-2.69 4-6 4-6-1.8-6-4 2.69-4 6-4Z" fill="#FCFE7F"/><path d="M13.95 11.22C12.88 12.29 11.05 13 8.98 13c-2.11 0-3.97-.73-5.03-1.83l1.07.25 1.53-.4 1.1.45L9 11.02l1.37.44 1.35-.41 1.26.48.97-.31ZM5 8c1.1 0 2 .67 2 1.5S6.1 11 5 11s-2-.67-2-1.5S3.9 8 5 8ZM9 8c1.1 0 2 .67 2 1.5S10.1 11 9 11s-2-.67-2-1.5S7.9 8 9 8ZM9 6c2.19 0 4.08.4 5 1H4c.92-.6 2.81-1 5-1ZM12.9 8c1 0 1.8.6 1.8 1.36 0 .75-.8 1.35-1.8 1.35-.99 0-1.8-.6-1.8-1.35 0-.75.81-1.36 1.8-1.36Z" fill="#8CB68E"/><path d="M4.35 11.67a4.3 4.3 0 0 1-.69-.7l.16-.11 1.2.57 1.5-.57 1.2.57L9 10.86l1.5.57 1.2-.57 1.2.57 1.38-.43h.03c-.19.24-.4.46-.66.67l-.74.33-1.2-.57-1.2.57-1.5-.57-1.3.57-1.2-.57-1.5.57-.66-.33Z" fill="#F0F3FA"/><path d="M3.5 10.74a3.3 3.3 0 0 1-.2-.35l.52-.39 1.2.57 1.5-.57 1.2.57L9 10l1.5.57 1.2-.57 1.2.57 1.38-.43.49.11c-.06.14-.14.28-.22.42l-.37-.09-1.27.56-1.2-.57-1.2.57-1.5-.57-1.3.57-1.2-.57-1.5.57-1.2-.6-.31.2Z" fill="#F0F3FA"/><path fill-rule="evenodd" d="M9 5.25C6.79 5.25 3.28 6.37 3.28 9c0 2.48 3.5 3.74 5.72 3.74 2.21 0 5.72-1.23 5.72-3.74 0-2.56-3.5-3.75-5.72-3.75ZM15 9c0-2.2-2.69-4-6-4S3 6.8 3 9s2.69 4 6 4 6-1.8 6-4Z" fill="#84808E"/></svg>