<!-- by TradingView --><svg width="18" height="18" viewBox="0 0 18 18" xmlns="http://www.w3.org/2000/svg"><path fill="#F0F3FA" d="M0 0h18v18H0z"/><path fill-rule="evenodd" d="M6.06 6H2v1.7h2.66c.46 0 .46.69.46.69s-.38-.34-1.09-.34c-.7 0-2.03.72-2.03 2.25 0 1.5 1.17 2.19 1.96 2.19.83 0 1.35-.5 1.35-.5l.13.5H7V7.1C7 6.05 6.06 6 6.06 6Zm-.94 4.1c0-.38-.26-.69-.62-.69s-.63.31-.63.69c0 .37.27.68.63.68.33 0 .62-.3.62-.68ZM15.1 6H10v1.7h3.75c.45 0 .45.69.45.69s-.37-.34-1.05-.34-1.95.72-1.95 2.25c0 1.5 1.12 2.19 1.88 2.19.8 0 1.3-.5 1.3-.5l.12.5H16V7.1C16 6.05 15.1 6 15.1 6Zm-.9 4.1c0-.38-.26-.69-.6-.69-.34 0-.6.31-.6.69 0 .37.26.68.6.68.31 0 .6-.3.6-.68Z" fill="#00762C"/><path d="M8 14h2V7.02s-.17-.6.5-.6V4.6H9.47S8 4.69 8 5.96V14Z" fill="#00762C"/><path fill-rule="evenodd" d="M6.06 6H2v1.03h2.66c.46 0 .65 1.36.65 1.36s-.64-.43-1.35-.43c-.7 0-1.96.6-1.96 2.01A2 2 0 0 0 3.96 12c.83 0 1.35-.46 1.35-.46l.13.46H7V7.03C7 6.04 6.06 6 6.06 6Zm-.4 3.78c0-.4-.32-.7-.73-.7a.71.71 0 0 0-.73.7c0 .38.3.7.73.7.38 0 .73-.32.73-.7ZM15.1 6H10v1h3.75c.45 0 .63 1.4.63 1.4s-.55-.4-1.23-.4c-.68 0-1.95.56-1.95 1.97A1.96 1.96 0 0 0 13.08 12c.8 0 1.3-.46 1.3-.46l.12.46H16V7.03c0-.99-.9-1.03-.9-1.03Zm-.39 3.78a.7.7 0 0 0-.7-.7.7.7 0 0 0-.7.7c0 .38.3.7.7.7.37 0 .7-.32.7-.7Z" fill="#10A736"/><path d="M8 14h2V6.42s.06-.6.5-.6V4H8.98S8 4.1 8 5.36V14Z" fill="#10A736"/></svg>