<!-- by TradingView --><svg width="18" height="18" viewBox="0 0 18 18" xmlns="http://www.w3.org/2000/svg"><path fill="#F0F3FA" d="M0 0h18v18H0z"/><path d="M5 11h1v1H5v-1ZM10 11h2v1h-2v-1Z" fill="#104287"/><path d="M4.25 9.96h.5v.87h-.5v-.87ZM4 9.67h1v.29H4v-.3Z" fill="#6E8DBB"/><path d="M3 12h.5v-.21L6 10.16v-.31l-2.74 1.81L3 12ZM7.46 11.04 6 10.16v-.31l1.8 1.07c.59.66-.34.4-.34.12Z" fill="#104287"/><path d="m3 12 3-1.94v-.4l-3 1.97V12ZM8 11.22l-2-1.16v-.4l2 1.18v.38Z" fill="#6E8DBB"/><path d="M7 12h.68v-.2L11 9.85v-.3l-3.72 2.13L7 12ZM15 12h-.68v-.2L11 9.85v-.3l3.72 2.13.28.32Z" fill="#104287"/><path d="m7 11.52 4-2.32v.48L7 12v-.48ZM15 11.52 11 9.2v.48L15 12v-.48ZM7 7.33v.3s-1.31.76-1.65 1.85L5 9.67s.35-1.42 2-2.34ZM7 8.5v.22s-.53.5-.66.8L6 9.67s.36-.73 1-1.17ZM11 7.33v.39s1.03.69 1.59 1.74l.41.2a5.32 5.32 0 0 0-2-2.33ZM11 8.5v.4l.32.38.68.39a5.14 5.14 0 0 0-1-1.17Z" fill="#6E8DBB"/><path d="M10 5v4.67l1-.8V5.73L10 5Z" fill="#10438E"/><path d="M9 5.7v4.43l1-.46V5.03l-1 .66Z" fill="url(#ao4hccdrn)"/><path d="M7 5.79v3.5l1 .73V5l-1 .79Z" fill="#0D438C"/><path d="M9 5.76V9.7l-.78.42-.22-.11V5l1 .76Z" fill="url(#bo4hccdrn)"/><defs><linearGradient id="ao4hccdrn" x1="9" y1="7.37" x2="10.36" y2="7.37" gradientUnits="userSpaceOnUse"><stop stop-color="#6E8DBB"/><stop offset="1" stop-color="#5779B1"/></linearGradient><linearGradient id="bo4hccdrn" x1="8" y1="7.38" x2="9.33" y2="7.38" gradientUnits="userSpaceOnUse"><stop stop-color="#6E8DBB"/><stop offset="1" stop-color="#5779B1"/></linearGradient></defs></svg>