<!-- by TradingView --><svg width="18" height="18" viewBox="0 0 18 18" xmlns="http://www.w3.org/2000/svg"><path fill="#F0F3FA" d="M0 0h18v18H0z"/><path d="M9.59 3.01a5.97 5.97 0 0 1 1.36.3l.08.02-.04.73.25.11.18.08.51-.5.08.04a6.02 6.02 0 0 1 1.21.93l.06.06-.35.63.04.05.01.01.01.02.02.02.01.02.02.01.02.02.03.04.01.02.01.01.02.02.03.04.03.03.04.05.68-.23.05.07a6 6 0 0 1 .64 1.22l.03.08-.58.43.02.08.04.14v.02l.07.22.72.07.01.08a6.05 6.05 0 0 1 .08 1.3v.08l-.7.16-.07.47.63.36-.02.07a5.95 5.95 0 0 1-.45 1.26l-.03.07-.72-.13-.03.06-.03.04-.03.06-.1.14c-.01.03-.03.07-.06.1l.44.58-.05.06a6.02 6.02 0 0 1-1 1.04l-.07.05-.59-.42-.05.04-.07.04h-.01l-.08.06-.02.01-.01.01h-.01l-.04.03-.02.02-.08.05.15.7-.07.05a5.97 5.97 0 0 1-1.07.44l-.08.02-.4-.61-.07.01-.05.01-.04.01h-.01l-.03.01-.17.03h-.03l-.06.02-.12.71-.08.01a6.05 6.05 0 0 1-1.48-.04h-.09l-.08-.73-.2-.05-.09-.02-.18-.04-.41.59-.08-.03a5.95 5.95 0 0 1-1.25-.62l-.07-.05.21-.69-.05-.04-.1-.08-.15-.12L5.5 13l-.62.37-.06-.06a6.02 6.02 0 0 1-.76-.9l-.05-.07.47-.55-.06-.11v-.01H4.4v-.02l-.07-.1v-.01l-.1-.17-.71.1-.03-.07a5.98 5.98 0 0 1-.38-1.22l-.02-.08.65-.33-.04-.34-.01-.13-.7-.2V9a6.06 6.06 0 0 1 .16-1.38l.02-.08.72-.03.03-.08.05-.16.04-.11.04-.1-.56-.47.03-.07a5.99 5.99 0 0 1 .77-1.25l.05-.06.66.28.33-.35-.3-.65.06-.06a6.02 6.02 0 0 1 1.11-.75l.08-.04.5.53.28-.12h.01l.14-.06-.01-.73.08-.02A5.94 5.94 0 0 1 8.43 3L8.51 3l.26.68h.48L9.51 3l.08.01Zm.64.32c-.19-.04-.38-.08-.58-.1l-.25.66h-.77l-.26-.66a5.8 5.8 0 0 0-.94.18l.01.71-.28.11-.07.03-.07.03L7 4.3l-.27.11-.49-.51a5.78 5.78 0 0 0-.94.64l.3.63-.53.56-.66-.27a5.83 5.83 0 0 0-.64 1.06l.54.46-.08.24-.03.07-.01.04-.06.16-.07.22-.7.03a5.8 5.8 0 0 0-.14 1.2l.68.18.07.76-.63.33a5.75 5.75 0 0 0 .32 1.02l.7-.1.17.3.02.04.04.07v.01l.01.01.14.24-.46.55a5.82 5.82 0 0 0 .63.74l.61-.36.19.15.15.12.1.08.16.13-.2.68a5.8 5.8 0 0 0 1.06.53l.4-.58.41.1.34.09.09.7a5.78 5.78 0 0 0 1.27.03l.12-.7.2-.03.05-.01.17-.04h.01l.32-.06.38.6a5.7 5.7 0 0 0 .88-.37l-.15-.69.2-.13.02-.01.05-.03.01-.01h.01l.06-.04.04-.03.26-.17.57.41a5.8 5.8 0 0 0 .86-.88l-.43-.56.14-.23.13-.2.02-.04.12-.2.7.14a5.77 5.77 0 0 0 .38-1.06l-.62-.34.07-.53.03-.23.7-.17v-.04a5.5 5.5 0 0 0-.03-.62 5.78 5.78 0 0 0-.05-.42l-.7-.07-.1-.36-.1-.38.56-.43a5.76 5.76 0 0 0-.54-1.03l-.67.23-.14-.17-.03-.03-.03-.04-.01-.02-.01-.01-.02-.02-.03-.04-.02-.02v-.01l-.02-.01v-.01l-.02-.02-.02-.02V5.6l-.14-.17.34-.61a5.8 5.8 0 0 0-1.04-.8l-.5.5-.7-.33.03-.7a5.72 5.72 0 0 0-.57-.16Z" fill="#2231E9"/><path d="M6.6 7.88s-.32-.2-.32-.51c0-.28.3-.34.42-.36.04-.11.2-.48.63-.48.44 0 .67.35.73.45.1.02.46.09.46.4 0 .35-.44.56-.44.56l-.05-.08s.38-.19.38-.48c0-.28-.4-.3-.4-.3h-.03v-.03s-.21-.42-.65-.42c-.43 0-.54.44-.54.44v.03h-.05s-.35.03-.35.27c0 .26.27.43.27.43l-.06.08Z" fill="#2231E9"/><path d="M7.09 7.5s.37.33.7-.1l.08.06c-.4.52-.84.11-.85.11l.07-.08Z" fill="#2231E9"/><path d="M12.98 8.84a3.04 3.04 0 0 1-.09 1.16H5.11a3.03 3.03 0 0 1 0-1.67h1.2l.23.67h.7V8h.32v1h.76l.28-1h.32l.2-1h.2v1l.12.88.28-.88H10l.2-1h.2v1h.37v1h.32l.3-1.33h.44l.22.66h.35l.13.67.46-.16Zm-1.8.16h.86l-.3-1.23h-.3L11.19 9ZM7.18 13h3.64v.5H7.18V13ZM5 11h8v.5H5V11Zm.36 1h7.28v.5H5.36V12Z" fill="#2231E9"/></svg>