<!-- by TradingView --><svg width="18" height="18" viewBox="0 0 18 18" xmlns="http://www.w3.org/2000/svg"><path fill="#F0F3FA" d="M0 0h18v18H0z"/><path d="M5 14.03h.67v-9c0-.21.17-.38.39-.38h6c.15 0 .27-.06.27.09v.08c0 .1.09.18.19.18h.3c.1 0 .18-.08.18-.18v-.25a.58.58 0 0 0-.58-.57H5.58a.58.58 0 0 0-.58.57v9.46Zm7.4-7.7-.07 6.7c0 .2-.16.35-.35.35H10V14h2.42c.32 0 .58-.23.58-.54V5.98l-.6.34Z" fill="#2D2F93"/><path d="M7.01 7h1.63c-.08-.15-.3-.66-.3-.93 0-.37.64-.78 1.14-.78h1.32s.38-.32 1.09-.32c0 0 .13.35 1.11.43 0 0-.57.54-1.48.54-.9 0-.84-.32-1.4-.32-.54 0-.77.33-.77.57 0 .62.46 1 .99 1 .26 0 .44-.1.56-.19h.12l.26.65H7.4a.4.4 0 0 0-.4.4v1.03l-.67 1.4v-2.8c0-.38.3-.68.68-.68ZM7 11.4v1.68c0 .17.14.3.3.3h1.37v.65H6.99a.66.66 0 0 1-.66-.65V11l.67.4Z" fill="#2D2F93"/><path fill-rule="evenodd" d="M7.31 9h3.73l.73 1.83-2.2 1.31v2.07l1.06.79H8l1-.79v-2.08l-2.42-1.35L7.3 9Zm.2.34h3.35l.49 1.39-2.2 1.22L7 10.79l.5-1.45Z" fill="#2D2F93"/></svg>