<!-- by TradingView --><svg width="18" height="18" viewBox="0 0 18 18" xmlns="http://www.w3.org/2000/svg"><path fill="#F0F3FA" d="M0 0h18v18H0z"/><circle cx="9" cy="9" r="5" fill="#BBBEC0"/><path d="M9 4.3a4.7 4.7 0 1 1 0 9.4 4.7 4.7 0 0 1 0-9.4Z" fill="#F0F3FA"/><path d="M8.34 4.57a5.01 5.01 0 0 1 4.63 6.97 4.72 4.72 0 0 1-8.68-2.56c0-1.84.97-3.32 2.5-4.1.47-.13 1.06-.3 1.55-.3Z" fill="url(#apajdmeat)"/><path d="M9.58 4.47a5.05 5.05 0 0 1 3.83 4.84c0 .68-.09 1.45-.34 2.05-.2.4-.92 1.28-1.6 1.66a5.1 5.1 0 0 1-3.8-4.77c0-1.56.75-2.92 1.91-3.78Z" fill="url(#bpajdmeat)"/><path d="M8.42 4.33c1.96 0 3.61 1.17 4.42 2.8a4.68 4.68 0 0 1-8.37.6 4.74 4.74 0 0 1 3.95-3.4Z" fill="url(#cpajdmeat)"/><path d="M12.84 7.1a4.72 4.72 0 0 1-4.83 2.92 4.71 4.71 0 0 1 1.58-5.55 5.01 5.01 0 0 1 3.25 2.62Z" fill="url(#dpajdmeat)"/><path d="M9 5.47h2.8l1.15 1.43.31.92-.73 2.36V8.12l-2.06 3.53 1.47-4.12-3.23 2.06 2.94-2.65-3.83.59 3.53-1.18L9 5.47Z" fill="#F0F3FA"/><defs><linearGradient id="apajdmeat" x1="4.59" y1="7.82" x2="11.35" y2="13.71" gradientUnits="userSpaceOnUse"><stop stop-color="#0095D9"/><stop offset="1" stop-color="#063072"/></linearGradient><linearGradient id="bpajdmeat" x1="8.12" y1="8.72" x2="13.41" y2="11.22" gradientUnits="userSpaceOnUse"><stop stop-color="#00BAEF"/><stop offset="1" stop-color="#0BABEF"/></linearGradient><linearGradient id="cpajdmeat" x1="10.05" y1="4.68" x2="4.67" y2="8.19" gradientUnits="userSpaceOnUse"><stop stop-color="#00C3EF"/><stop offset=".92" stop-color="#02A1E8"/></linearGradient><linearGradient id="dpajdmeat" x1="12.82" y1="7.09" x2="7.53" y2="7.82" gradientUnits="userSpaceOnUse"><stop stop-color="#D1E2EA"/><stop offset=".94" stop-color="#5DC6F3"/></linearGradient></defs></svg>