<!-- by TradingView --><svg width="18" height="18" viewBox="0 0 18 18" xmlns="http://www.w3.org/2000/svg"><path fill="#F0F3FA" d="M0 0h18v18H0z"/><path d="M9 6c3.85 0 7 1.01 7 2.27 0 .62-.8 1.18-2.04 1.58-1-.26-2.62-.42-4.49-.42-2.19 0-3.97.24-4.85.57C3.1 9.59 2 8.96 2 8.27c0-1.08 2.28-1.98 5.38-2.2v.04c0 .45.36.89.82.89.45 0 .83-.44.83-.9C9 6.08 9 6.04 9 6ZM10.4 12h.32v-.07c0-.44.22-.93.5-.93.27 0 .5.49.5.93v.03c1.64-.16 2.82-.6 3.28-1.16-.9-.47-2.51-.8-4.35-.8-2.07 0-3.85.4-4.65.98.72.58 2.42 1.02 4.4 1.02Z" fill="#6DB7F8"/><path opacity=".5" fill="#F0F3FA" d="M4 7.46h10V9H4z"/></svg>