<!-- by TradingView --><svg width="18" height="18" viewBox="0 0 18 18" xmlns="http://www.w3.org/2000/svg"><path fill="#F0F3FA" d="M0 0h18v18H0z"/><path d="M9.75 12.58c.8-.24 1.59-.63 2.25-1-.85.34-1.91.7-3.02.7-2.9 0-5.09-1.47-5.09-3.17 0-.38.09-.77.3-1.11C3.5 8.78 3 9.64 3 10.44c0 .13.01.27.04.4.42 1.93 3.42 2.71 6.71 1.74ZM8.25 5.42c-.8.24-1.59.63-2.25 1a8.13 8.13 0 0 1 3.02-.7c2.9 0 5.09 1.47 5.09 3.17 0 .38-.09.77-.3 1.11.7-.78 1.19-1.64 1.19-2.44 0-.13-.01-.27-.04-.4-.42-1.93-3.42-2.72-6.71-1.74Z" fill="#105EFB"/><path d="M7.32 9.2 7 8.34l-.34.86h.66ZM6.84 8h.35L8 10h-.35l-.23-.55h-.85l-.23.55H6l.84-2ZM9.36 9.77c.45 0 .69-.3.69-.75 0-.48-.2-.79-.7-.79h-.5v1.54h.51ZM8.45 8h.98c.57 0 1.02.38 1.02.97A.98.98 0 0 1 9.42 10h-.97V8ZM11 8h.4v2H11V8Z" fill="#105EFB"/></svg>