<!-- by TradingView --><svg width="18" height="18" viewBox="0 0 18 18" xmlns="http://www.w3.org/2000/svg"><path fill="#F0F3FA" d="M0 0h18v18H0z"/><path d="M12.12 6.86a3.88 3.88 0 0 1 0 4.4l.68.7-.95.96-.68-.69a3.74 3.74 0 0 1-4.34 0l-.68.7-.95-.97.68-.7a3.88 3.88 0 0 1 0-4.4l-.68-.7.95-.96.68.7a3.74 3.74 0 0 1 4.34 0l.68-.7.95.97-.68.69Z" fill="#BEBFC7"/><path fill-rule="evenodd" d="M12.12 6.86a3.88 3.88 0 0 1 0 4.4l.68.7-.95.96-.68-.69a3.74 3.74 0 0 1-4.34 0l-.68.7-.95-.97.68-.7a3.88 3.88 0 0 1 0-4.4l-.68-.7.95-.96.68.7a3.74 3.74 0 0 1 4.34 0l.68-.7.95.97-.68.69Zm-.97-1.15.7-.71L13 6.17l-.7.7a4.03 4.03 0 0 1 0 4.38l.7.7-1.15 1.18-.7-.71a3.88 3.88 0 0 1-4.3 0l-.7.7L5 11.97l.7-.71a4.03 4.03 0 0 1 0-4.37L5 6.17 6.15 5l.7.7a3.88 3.88 0 0 1 4.3 0Z"/><path d="M4.15 8.7h.48v-.54h8.74v.54h.48v1.6h-.48v.54H4.63v-.54h-.48V8.7Z" fill="url(#apvrfg5p5)"/><path d="M4 8.54h.49V8h9.02v.54H14v1.92h-.49V11H4.5v-.54H4V8.54Zm.63 1.76v.54h8.74v-.54h.48V8.7h-.48v-.54H4.63v.54h-.48v1.6h.48Z"/><path d="M3 9h1v1H3V9ZM14 9h1v1h-1V9Z" fill="#2B2B2A"/><path d="M5 9h8v1H5V9Z" fill="#BE6142" fill-opacity=".7"/><path d="M7.18 13.86h3.64L9.9 5H8.09l-.9 8.86Z" fill="#FFFF80"/><path d="m7.03 14 .94-9.14h2.06l.94 9.14H7.03Zm3.79-.14L9.9 5H8.09l-.9 8.86h3.63Z"/><path d="M7.33 12.46h3.34L10.2 7.8H7.8l-.47 4.66Z" fill="gray"/><path d="M7.95 6.4h2.1l-.1-.93h-1.9l-.1.93Z" fill="#837F7E"/><path fill-rule="evenodd" d="M9.9 5H8.1v-.22c0-.9.4-1.64.91-1.64.5 0 .9.72.9 1.6V5Zm-.37 0H8.47v-.13c0-.55.24-1 .54-1 .29 0 .52.44.52.98V5Z" fill="#828282"/><path fill-rule="evenodd" d="M7.95 5.14v-.36c0-.47.11-.9.3-1.23.17-.32.44-.55.76-.55s.58.23.75.54c.18.32.29.74.29 1.2v.4h-2.1Zm.52-.28V5h1.06v-.15c0-.54-.23-.97-.52-.97-.3 0-.54.44-.54.98Zm.93 0v-.01c0-.25-.06-.47-.14-.62-.09-.16-.18-.21-.25-.21-.08 0-.18.06-.27.22-.08.15-.14.37-.14.62h.8ZM8.1 5v-.22c0-.9.4-1.64.91-1.64.5 0 .9.72.9 1.6V5H8.09Z"/><defs><linearGradient id="apvrfg5p5" x1="7.3" y1="8.16" x2="9.26" y2="11.21" gradientUnits="userSpaceOnUse"><stop stop-color="#FDFDFB"/><stop offset=".47" stop-color="#FBFFD5"/><stop offset="1" stop-color="#fff"/></linearGradient></defs></svg>