<!-- by TradingView --><svg width="18" height="18" viewBox="0 0 18 18" xmlns="http://www.w3.org/2000/svg"><path fill="#F0F3FA" d="M0 0h18v18H0z"/><path d="M9 4a5 5 0 1 1 0 10A5 5 0 0 1 9 4Z" fill="url(#at24fuhmz)"/><path fill-rule="evenodd" d="M13.7 9a4.7 4.7 0 1 0-9.4 0 4.7 4.7 0 0 0 9.4 0Zm.3 0A5 5 0 1 0 4 9a5 5 0 0 0 10 0Z" fill="#FD6F64"/><path d="M6.7 7h1.98l1.66 4.95c.1.31.21.54.32.7.11.15.23.27.34.35H8.45a.7.7 0 0 0 .33-.8 1.31 1.31 0 0 0-.05-.18L8.33 11H6.85l-.44 1.04c-.05.16-.08.3-.08.42 0 .22.1.4.28.54H5c.15-.17.27-.33.35-.48.1-.15.17-.34.25-.57l1.32-4c.05-.15.08-.3.08-.45a.5.5 0 0 0-.07-.26.84.84 0 0 0-.24-.24ZM7 10.33h1.17l-.57-1.82-.6 1.82Z" fill="#009B4C"/><defs><linearGradient id="at24fuhmz" x1="9" y1="4" x2="9" y2="14" gradientUnits="userSpaceOnUse"><stop stop-color="#F7282E"/><stop offset="1" stop-color="#FFF3E9"/></linearGradient></defs></svg>