<!-- by TradingView --><svg width="18" height="18" viewBox="0 0 18 18" xmlns="http://www.w3.org/2000/svg"><path fill="#F0F3FA" d="M0 0h18v18H0z"/><path d="M4.12 5.48a6.07 6.07 0 0 0 .53 7.65 5.88 5.88 0 0 0 5.53 1.76c1.42-.3 2.58-1 3.48-2.1A6 6 0 0 0 9.12 3a6.02 6.02 0 0 0-5 2.48Zm5.4-1.64a7.37 7.37 0 0 0 .64.88c-.03.03-.7-.26-1.01-.44a6.76 6.76 0 0 1-1-.7c.02-.02.42-.06.79-.06h.37l.2.32Zm.99-.11.51.17.24.1v.17a10.97 10.97 0 0 0 .1 1.01c-.02.03-.53-.41-.71-.62a9.48 9.48 0 0 1-.65-.8l-.12-.17.17.03c.1.01.3.06.46.1Zm-2.67.18.2.2H6.55l.16-.1c.2-.1.76-.3.85-.3.04 0 .16.09.28.2Zm4.23.56c.4.28.46.33.5.55.07.35-.06 1-.27 1.31l-.08.12-.06-.15c-.15-.36-.3-.95-.39-1.52-.05-.38-.06-.5-.01-.5.01 0 .16.08.31.19Zm-3.76.12c.05.01.08.16.04.26l-.03.08H5.35l.08-.08a1 1 0 0 1 .49-.27c.13-.03 2.32-.02 2.39 0Zm1.63.48c1.06.21 1.77.82 1.97 1.66.1.46.01 1.07-.22 1.5-.05.08-.1.18-.1.21 0 .08.31.29.54.38.11.04.33.09.48.11l.32.06c.02.02-.01.08-.11.18-.13.14-.15.18-.15.3 0 .07.02.2.05.26l.06.13.63-.7a286.52 286.52 0 0 0 .88-.96c.04 0 .14.26.14.37 0 .07-.02.15-.04.2-.02.04-.38.42-.8.84l-.74.77-.02.34a2.4 2.4 0 0 1-.23.94c-.1.2-.1.21-.1.8 0 .73 0 .76-.3.97l-.23.15-.01-.5c0-.32-.02-.52-.04-.52-.05 0-.27.15-.34.23-.06.06-.07.13-.08.55-.02.45-.02.48-.1.56-.09.08-.37.2-.4.15-.01-.02-.02-.22-.02-.46 0-.28-.02-.45-.04-.46-.06-.04-.26-.01-.34.04-.07.05-.07.07-.08.55l-.01.5-.1.05c-.04.02-.16.05-.26.06l-.17.02-.01-.5-.01-.52h-.18c-.2-.02-.26.03-.26.18 0 .1-.08.14-.48.28-.68.24-1.45.32-2.02.22l-.24-.04.2-.03c.65-.1 1.2-.27 1.54-.49.2-.12.25-.24.25-.5 0-.36.04-.34-.67-.37a5.22 5.22 0 0 1-2.36-.53 3.97 3.97 0 0 1-1.62-1.36c-.2-.32-.2-.4.01-.2.47.4.6.5.86.67.27.17.8.43.82.4l-.1-.2A2.38 2.38 0 0 1 5.4 9.9c.02-.2.07-1.06.07-1.99 0-1.87-.07-1.71.3-1.67.19.02.22.03.25.1.01.05.03.56.03 1.14 0 1.15 0 1.14.18 1.04a.78.78 0 0 0 .17-.14l.09-.08v-1c0-1.17-.02-1.1.37-1.06.52.04 1.56.14 1.79.71v-2l.54.03c.23 0 .57.05.75.09Zm-1.61.35c.03.03.06.5.03.6-.02.09-.13.1-.3 0-.08-.04-.28-.1-.44-.14a7.92 7.92 0 0 0-1.66-.08l-1.37-.01.08-.13c.1-.16.2-.23.38-.26.17-.03 3.24-.01 3.28.02Zm-3.42.83c.06.04.07.1.07 2.18 0 1.79-.01 2.15-.05 2.15-.08 0-.35-.28-.42-.43-.06-.14-.1-.22-.1-1.99 0-1.44.05-1.85.08-1.89.05-.06.33-.07.42-.02Zm8.9.53c.02.02-.02.12-.08.24-.16.3-.52.67-.86.85-.29.15-.62.28-.65.25a2.02 2.02 0 0 1 1.3-1.3c.2-.08.27-.08.3-.04ZM4.07 8.19v1.28l-.19-.2c-.3-.63-.3-1.36 0-2.17.04-.1.18-.19.19-.19V8.2Zm10.16-.8c.1.23.07.28-.4.77-.23.24-.44.44-.47.45a.66.66 0 0 1-.26-.04c-.1-.04-.24-.07-.3-.07h-.1l.16-.1c.78-.52.97-.67 1.17-.98l.13-.18.07.14Zm.2 2.26c-.07.5-.21 1.03-.4 1.39l-.08.18-.01-.31c-.01-.47 0-.9.04-1.02.02-.07.1-.17.24-.29l.22-.18-.02.23Zm-.95 1.61c0 1.02 0 .98-.32 1.3l-.27.2v-1.87l.3-.25c.12-.14.24-.26.26-.26.04 0 .04.17.03.88Zm-8.55.85c.35.23.8.45 1.2.6l.33.1-.19.06c-.39.12-.8.13-1.03.04a3.96 3.96 0 0 1-.9-1.13l-.11-.2.2.17c.12.1.34.26.5.36Zm3.17.94.15.02-.2.1a3.12 3.12 0 0 1-1.99.24l.23-.07.58-.2.34-.15.37.02.52.04Zm1.44 1.18v.16c-.02.06-.37.1-.72.07l-.28-.03.46-.15.48-.16c.02 0 .05.04.06.1Z" fill="#435263"/><path fill-rule="evenodd" d="M6.98 7.05V6.9c0-.1 0-.18.1-.17.63.05 1.68.36 1.68 1.4v.4c0 .1.09.19.2.19h.07c.11 0 .2-.09.2-.2V5.66c0-.11.08-.2.2-.2.82.07 2.18.48 2.18 1.8 0 .74-.53 1.28-.8 1.46.57.07 1.7.54 1.7 1.79 0 1.5-1.38 2.31-3.09 2.37-.1 0-.2-.08-.2-.2v-3.3a.2.2 0 0 0-.19-.2h-.08a.2.2 0 0 0-.2.2v2.6c0 .1-.07.2-.17.2-1.02.03-2.76-.3-2.76-2.01 0-1.47 1.34-1.56 2.22-1.48.12.01.26-.08.25-.2.05-.66-.24-1.2-1.2-1.22-.1 0-.1-.09-.1-.19v-.03Zm2.73-.82v2.11c0 .1.08.17.17.16.51-.07 1.24-.42 1.24-1.31 0-.7-.72-1.01-1.22-1.11a.16.16 0 0 0-.2.15Zm0 3.07v2.84c0 .07.05.13.12.12.8-.06 2.17-.49 2.17-1.83 0-.98-1.1-1.24-1.43-1.26h-.75a.12.12 0 0 0-.11.13Zm-1.42-.02v2.22a.1.1 0 0 1-.1.1c-.67-.05-1.84-.39-1.84-1.43 0-.77.58-.97.87-.98h.97c.06 0 .1.04.1.1Z" fill="#383936"/></svg>