<!-- by TradingView --><svg width="18" height="18" viewBox="0 0 18 18" xmlns="http://www.w3.org/2000/svg"><path fill="#F0F3FA" d="M0 0h18v18H0z"/><path d="M9.03 4c1.62 0 3.04.75 3.97 1.91a4.27 4.27 0 0 0-2.86-1.1A4.1 4.1 0 0 0 6.04 9a4.1 4.1 0 0 0 4.1 4.19c1.1 0 2.08-.4 2.84-1.08A5.05 5.05 0 0 1 4 9a5 5 0 0 1 5.03-5Z" fill="#E61B19"/><path d="M9.36 6.35v4.1s.14 1.2 1.65 1.2c1.51 0 1.63-1.27 1.63-1.27V6.35H9.36Z" fill="#5AB2FE"/><path d="M13 6v4.48h-.19.19v.01a.77.77 0 0 1-.01.07l-.04.17c-.04.14-.12.33-.25.52-.28.38-.79.75-1.69.75-.9 0-1.4-.35-1.69-.71a1.69 1.69 0 0 1-.32-.72l.19-.03-.19.02V6h4Zm-3.64.35.02 4.18v.03l.04.13c.04.1.1.25.2.39.22.27.62.57 1.4.57.76 0 1.15-.31 1.36-.6a1.43 1.43 0 0 0 .24-.59l.02-4.1c-1.15 0-2.15.02-3.28 0Z" fill="#2B2A29"/><path d="M10.82 8.3c.1-.02 1.42-.61 1.51.08.1.68-1.17 1.04-1.17 1.04s.83.26.83.61c0 .33-.78.42-.78.42l-.07.26-.2-.09s.22-.43.57-.52c.36-.1-.86-.21-.86-.52 0-.3 1.12-.59 1.25-1.04.12-.45-1 .02-1 .02s-.98.43-1.03.31c-.07-.12-.21-.59.95-.57Z" fill="#171053"/><path d="M9.36 10.59h3.28c-.05.21-.3 1.06-1.64 1.06-1.5 0-1.64-1.06-1.64-1.06Z" fill="#171053"/><path d="M11.18 7.41h-.36v3.18h.36V7.4Z" fill="#4B1549"/><path d="M11 7.76c.2 0 .36-.15.36-.35 0-.2-.16-.35-.36-.35-.2 0-.36.16-.36.35 0 .2.16.35.36.35Z" fill="#4B1549"/></svg>