<!-- by TradingView --><svg width="18" height="18" viewBox="0 0 18 18" xmlns="http://www.w3.org/2000/svg"><path fill="#F0F3FA" d="M0 0h18v18H0z"/><path fill-rule="evenodd" d="M15 9A6 6 0 1 0 3 9a6 6 0 0 0 12 0Zm-1 0A5 5 0 1 0 4 9a5 5 0 0 0 10 0Z" fill="#1B236C"/><path d="M13 10v.38h-1V10h1Zm-2 0v.38h-1V10h1Zm-3 0v.38H7V10h1Zm-2 0v.38H5V10h1ZM12 11v.38h-1V11h1Zm-3 0v.38H8V11h1Zm-2 0v.38H6V11h1ZM12 12.63h-1V13h1v-.38Zm-2 0V13H9v-.38h1Zm-2 0V13H7v-.38h1ZM11.63 9H12v1h-.38V9ZM8 8h1.5l-.08.38L8 8ZM6.5 8H5l.07.38L6.5 8ZM6.13 7l.62.38H6L6.13 7ZM8 7.27 8.9 7l.22.37L8 7.27ZM8.56 6H9L8 7l.56-1ZM6.36 6 7 7l-1-.83.36-.17ZM7.7 5.4s-.02.16 0 .3c.04.14.17.24.17.43 0 .2-.12.34-.19.4 0 0-.18-.3-.18-.58 0-.28.2-.55.2-.55ZM6.38 10l.44-.35h1.9L9 10H6.37Z" fill="#1B236C"/><path fill-rule="evenodd" d="M7.95 6.6h-.52L6.9 10h1.58l-.53-3.4Zm-.17 2.14h-.3L7.32 10h.46V8.74Zm-.23-1.17h.29v.8h-.29v-.8Zm.3-.86h-.28l-.03.7h.3v-.7Z" fill="#1B236C"/><path d="m12 8-1 .67L10 8v.33L11 9l1-.67V8ZM12 7l-1 .67L10 7v.33L11 8l1-.67V7ZM10.57 6.41l.23-.58.23.58-.23.59-.23-.59Z" fill="#1B236C"/></svg>