<!-- by TradingView --><svg width="18" height="18" viewBox="0 0 18 18" xmlns="http://www.w3.org/2000/svg"><path fill="#F0F3FA" d="M0 0h18v18H0z"/><path d="M9 15A6 6 0 1 0 9 3a6 6 0 0 0 0 12Z" fill="#FBD52D"/><path fill-rule="evenodd" d="M15 9A6 6 0 1 1 3 9a6 6 0 0 1 12 0Zm-.16 0A5.84 5.84 0 1 1 3.16 9a5.84 5.84 0 0 1 11.68 0Z" fill="#181B1E"/><path d="M4 9c0 .36.04.7.11 1.05l1.02-.2a4.05 4.05 0 0 1-.1-.85H4Zm.43 2.05c.15.32.32.62.53.9l.83-.6a4.1 4.1 0 0 1-.43-.73l-.93.43Zm1.23 1.69a5 5 0 0 0 .84.62l.52-.9c-.25-.15-.48-.31-.69-.5l-.67.78Zm1.8 1.04a5 5 0 0 0 1.02.22l.12-1.04a4.06 4.06 0 0 1-.82-.18l-.32 1Zm2.06.22a5 5 0 0 0 1.02-.22l-.3-1c-.28.1-.55.15-.84.18L9.52 14Zm1.98-.65c.3-.17.59-.38.85-.61l-.7-.78c-.22.19-.45.36-.7.5l.55.9Zm1.54-1.4c.21-.28.38-.58.53-.9l-.95-.43c-.12.26-.26.5-.42.73l.84.6Zm.85-1.9c.07-.35.1-.7.11-1.05h-1.02c0 .28-.03.57-.1.85l1.01.2Z" fill="#261F51"/><path d="M5 9a4 4 0 0 0 8 0h-.73a3.27 3.27 0 1 1-6.54 0H5Z" fill="#261F51"/><path d="m9 7.49-1 .88-.33-.25s-.23.2-.35.1c-.12-.1.04-.38.04-.38s-.47-.07-.34-.25c.13-.19.3-.18.3-.18s-.28-.48-.12-.56c.17-.07.5.11.5.11s.01-.4.26-.4c.24 0 .23.25.23.25s.23-.16.4-.05c.16.12.07.37.07.37l.34.36Z" fill="#F0F3FA"/><path fill-rule="evenodd" d="m7.67 8.12.33.25 1-.88-.34-.36s.1-.25-.07-.37c-.1-.06-.2-.04-.3 0l-.1.05s0-.06-.03-.12c-.02-.06-.08-.13-.2-.13-.16 0-.22.16-.25.28l-.02.12-.1-.05c-.12-.05-.28-.1-.39-.06-.11.05-.01.3.06.45l.06.11s-.05 0-.12.03a.4.4 0 0 0-.18.15c-.08.12.1.19.22.22l.12.03-.05.1c-.03.1-.06.21.01.27.12.1.35-.09.35-.09Zm-.3-.4.17.03-.08.14a.72.72 0 0 0-.05.13.28.28 0 0 0-.02.09v.02h.02l.08-.03a.6.6 0 0 0 .1-.06l.08-.06.33.24.84-.74-.3-.33.01-.06a.36.36 0 0 0 .02-.1c0-.07-.01-.1-.05-.13s-.1-.03-.16 0a.49.49 0 0 0-.1.04l-.2.14v-.23a.22.22 0 0 0 0-.08.1.1 0 0 0-.04-.04l-.06-.02c-.04 0-.08.03-.11.13a.67.67 0 0 0-.04.17v.19l-.18-.1a1.13 1.13 0 0 0-.3-.11h-.06v.01c0 .04.01.1.04.16a1.7 1.7 0 0 0 .1.23h.01l.1.2-.2-.03H7.3a.2.2 0 0 0-.04.02.28.28 0 0 0-.14.1c.01.01.03.03.07.04a.84.84 0 0 0 .18.04Zm-.1-.78Zm.13 1.19Z" fill="#181B1E"/><path d="m8.22 7.36.59.3-.65.56-.35-.33.41-.53Z" fill="url(#adnue1m5k)"/><path d="m9 7.49 1 .88.33-.25s.23.2.35.1c.12-.1-.04-.38-.04-.38s.47-.07.34-.25c-.13-.19-.3-.18-.3-.18s.28-.48.12-.56c-.17-.07-.5.11-.5.11s-.01-.4-.26-.4c-.24 0-.23.25-.23.25s-.23-.16-.4-.05c-.16.12-.07.37-.07.37L9 7.49Z" fill="#F0F3FA"/><path fill-rule="evenodd" d="m9 7.49 1 .88.33-.25s.23.2.35.1c.07-.07.04-.19.01-.28l-.05-.1.12-.03c.13-.03.3-.1.22-.22a.4.4 0 0 0-.18-.15c-.07-.03-.12-.03-.12-.03l.06-.1c.07-.15.17-.4.06-.46-.1-.05-.27.01-.38.06l-.11.05-.02-.12c-.03-.12-.1-.28-.25-.28-.12 0-.18.07-.2.13-.03.06-.03.12-.03.12l-.1-.05c-.1-.04-.2-.06-.3 0-.16.12-.07.37-.07.37L9 7.49Zm.45-.4.02.06-.3.33.83.74.33-.24.08.06a.58.58 0 0 0 .1.06l.08.03h.01V8a.67.67 0 0 0-.06-.11l-.08-.15.17-.02a.64.64 0 0 0 .06-.02l.12-.03a.27.27 0 0 0 .07-.03.28.28 0 0 0-.14-.11.2.2 0 0 0-.05-.02l-.22.02.1-.18h.01v-.02a1.86 1.86 0 0 0 .11-.22.57.57 0 0 0 .04-.17h-.07a1.2 1.2 0 0 0-.29.1v.01l-.17.1-.01-.2a.32.32 0 0 0 0-.04.67.67 0 0 0-.04-.12c-.03-.1-.07-.13-.1-.13-.04 0-.06.01-.07.02a.1.1 0 0 0-.03.04.2.2 0 0 0-.02.07l.01.24-.2-.13a.45.45 0 0 0-.1-.06c-.07-.02-.12-.02-.16 0-.04.03-.05.07-.05.13a.38.38 0 0 0 .01.1Zm1.28-.15Zm-.13 1.19Z" fill="#181B1E"/><path d="m9.77 7.36-.58.3.65.56.34-.33-.41-.53Z" fill="#181B1E"/><path opacity=".3" d="M11 11H7v1h4v-1Z" fill="url(#bdnue1m5k)"/><path d="M8 9.23s-1.32.77-.48 1.57l-.14.2c-1.1-1.05.52-2 .53-2l.09.23Z" fill="#2B2B2A"/><path opacity=".2" d="M12 7a3.5 3.5 0 0 0-3-1.6A3.5 3.5 0 0 0 6 7h.45A3.13 3.13 0 0 1 9 5.75c1.07 0 2 .5 2.55 1.25H12Z" fill="url(#cdnue1m5k)"/><path opacity=".4" d="M7.06 11A2.64 2.64 0 0 1 6 9h.37c0 .64.3 1.21.77 1.63l-.08.37Zm3.91-.02c.61-.49 1-1.2 1.03-1.98h-.38c0 .63-.28 1.2-.73 1.61l.08.37Z" fill="url(#ddnue1m5k)"/><path d="m9.09 8.17.46-.39.12.16-.5.43V9H9v-.63l-.7-.43.11-.19.68.42Z"/><path d="m8 10.7.39.3h1.16l.45-.3L9.66 9H8.4L8 10.7Z" fill="#F0F3FA"/><path fill-rule="evenodd" d="M8.44 10.8H9.5l.3-.2-.27-1.4h-1l-.34 1.4.25.2ZM8 10.7l.39.3h1.16l.45-.3L9.66 9H8.4L8 10.7Z" fill="url(#ednue1m5k)"/><path d="M8.9 9h.23v.97h-.24V9Z" fill="#181B1E"/><path opacity=".3" d="M5.05 5.77C4.5 6.4 4.13 7.17 4 8h1.13c.14-.58.42-1.1.79-1.55l-.87-.68Zm.48-.49.87.68A3.98 3.98 0 0 1 12.87 8H14a4.95 4.95 0 0 0-5-4c-1.34 0-2.56.49-3.47 1.28Z" fill="url(#fdnue1m5k)"/><defs><linearGradient id="adnue1m5k" x1="8.31" y1="7.36" x2="8.31" y2="8.22"><stop offset="1" stop-color="#181B1E"/></linearGradient><linearGradient id="bdnue1m5k" x1="9" y1="11" x2="9" y2="12"><stop offset="1" stop-color="#181B1E"/></linearGradient><linearGradient id="cdnue1m5k" x1="9" y1="5.4" x2="9" y2="7"><stop offset="1" stop-color="#181B1E"/></linearGradient><linearGradient id="ddnue1m5k" x1="9" y1="9" x2="9" y2="11"><stop offset="1" stop-color="#181B1E"/></linearGradient><linearGradient id="ednue1m5k" x1="9" y1="9" x2="9" y2="11"><stop offset="1" stop-color="#181B1E"/></linearGradient><linearGradient id="fdnue1m5k" x1="9" y1="4" x2="9" y2="8"><stop offset="1" stop-color="#181B1E"/></linearGradient></defs></svg>