<!-- by TradingView --><svg width="18" height="18" viewBox="0 0 18 18" xmlns="http://www.w3.org/2000/svg"><path fill="#F0F3FA" d="M0 0h18v18H0z"/><path fill-rule="evenodd" d="M7 13.71v-3.19l1.69.48V4L4 5.2v7.59l1 .3V10l1 .35v2.15l-.4-.33v-.84h.2v-.66l-.5-.17v2.69l1.7.52ZM8 5l-3 .69v3.25l3 .63V5Z" fill="#7CA087"/><path d="m8 4.77-.77.37v1.72H8v.57h-.77V9.7l.51.33v.25h-.68l-.6-.55V7.43H5.7v2l.39.28V10h-.7l-.45-.49v-4.2l.79-.45.55.28-.58.29v1.43h.77V5.07l1.05-.5.48.2Z" fill="#F0F3FA"/><path d="m7 5.06.63-.28-.1-.04-.87.41v2H5.51v-1.8l.43-.21-.2-.1-.74.34v4.09l.49.39h.4v-.09l-.38-.28V7.43h1.15v2.26l.5.45h.4v-.03L7 9.78V7.43h.8v-.29H7V5.06ZM8 7v.57h-.77v2.14l.51.33v.25h-.68l-.6-.55V7.57H5.7v1.86l.39.28V10h-.7l-.58-.49v-4.2l.92-.45.55.28-.58.29V7h.77V5.07l1.05-.5.48.2-.77.37V7H8ZM7.44 11l1.25.32V14l-1.23-.31v-.78h.6v-.27h.63v-.82h-.63v-.27h-.62V11Z" fill="#7CA087"/><path fill-rule="evenodd" d="M14 5.45 9 4v10l2-.45v-2.91h.86V10H13v1h-1.57v2.46l2.57-.58v-.44L12 13v-.4l1.6-.4V11h.4V5.45Zm-4 2.03V13h.86v-.26h-.29V8H13v-.52h-2V5.52l1.71.77v.52H13v-.78L10.43 5v2.48H10Z" fill="#7CA087"/></svg>