<!-- by TradingView --><svg width="18" height="18" viewBox="0 0 18 18" xmlns="http://www.w3.org/2000/svg"><path fill="#F0F3FA" d="M0 0h18v18H0z"/><path d="M4.52 4h8.96c.28 0 .52.16.52.5 0 .34-.24.5-.52.5H9.62c-.15 0-.3.5-.3 1H8.05c0-.53-.15-1-.31-1H4.52C4.24 5 4 4.84 4 4.5c0-.34.24-.5.52-.5Z" fill="#D51728"/><path d="M11.64 8.58A3.29 3.29 0 0 0 8.86 7a3.36 3.36 0 0 0-3.2 2.52l1.4.53a1.83 1.83 0 0 1 3.14-.78l1.44-.7Zm.36 3.09-1.31-.68-.07-.06a1.83 1.83 0 0 1-3.33.56l-1.35.7A3.3 3.3 0 0 0 8.86 14c1.45 0 2.68-.97 3.14-2.33Z" fill="#797979"/><path d="m9 10.5 4.59 2.47c.09.05.19.04.28-.02a.33.33 0 0 0 .13-.28V8.39c0-.18-.21-.39-.5-.39-.29 0-.5.2-.5.39v2.68c0 .16-.03.32-.19.33-.05 0-.1 0-.15-.04L10 10l-1 .5Z" fill="#1A2D56"/><path d="m4 11.46 1.74-1.13L7 11l1-.5-4.59-2.47a.26.26 0 0 0-.28.02.33.33 0 0 0-.13.28v4.14c0 .38.34.53.5.53.16 0 .5-.13.5-.53v-1.01Zm.94-1.73c-.04.17-.12.47-.36.6s-.43 0-.58-.13v-.48c0-.12.05-.22.14-.28.05-.04.09-.06.13-.06.03 0 .07.02.1.04l.57.3Z" fill="#005E9E"/></svg>