<!-- by TradingView --><svg width="18" height="18" viewBox="0 0 18 18" xmlns="http://www.w3.org/2000/svg"><path fill="#F0F3FA" d="M0 0h18v18H0z"/><path d="M9.71 7c.16 0 .29.13.29.28 0 .16-.13.28-.29.28a.28.28 0 0 1-.28-.28c0-.15.12-.28.28-.28Z" fill="#CEA328"/><path d="m8.78 4.04-5.76 7.83c-.03.03-.02.07.01.1.04.03.1.04.14.02l1.8-.84 2.14-2.72a.12.12 0 0 1 .1-.04h.03c.05.01.08.05.08.09L7.33 10l.63-.24s1-.38 1.04-1.2V4.08C9 4.05 8.95 4 8.9 4c-.05 0-.1 0-.12.04Z" fill="#9B8029"/><path d="M14.98 11.87 9.21 4.05C9.18 4 9.13 3.99 9.08 4c-.05.01-.08.05-.08.09v1.64l1.98 2.79.02.04-.01.04-.02.02a.12.12 0 0 1-.07.03c-.02 0-.05 0-.07-.02-.4-.18-1.08-.3-1.83-.63v.45s.02.86.91 1.3c.74.35 3.86 1.76 4.92 2.24.05.02.1.01.14-.01.03-.03.04-.07.01-.1Z" fill="#CEA328"/><path d="M6.04 10.42a.28.28 0 0 1 .1-.38.29.29 0 0 1 .4.1c.07.14.02.3-.11.38a.29.29 0 0 1-.4-.1Z" fill="#9B8029"/><path d="M4.1 13h9.8a.1.1 0 0 0 .1-.07.1.1 0 0 0-.05-.12L12.4 12H8.64c-.05 0-.1-.05-.1-.1a.1.1 0 0 1 .05-.09c.33-.2 1.16-.67 1.77-1.06l-.46-.47s-.37-.27-.86-.28c-.2 0-.43.04-.65.17-.63.36-3.48 2.1-4.34 2.64a.1.1 0 0 0-.05.08v.04a.1.1 0 0 0 .1.07Z" fill="#A62322"/><path d="M11.53 11.45a.29.29 0 0 1-.39.1.28.28 0 0 1-.1-.38.29.29 0 0 1 .39-.1c.13.08.18.25.1.38Z" fill="#A62322"/></svg>