<!-- by TradingView --><svg width="18" height="18" viewBox="0 0 18 18" xmlns="http://www.w3.org/2000/svg"><path fill="#181B1E" d="M0 0h18v18H0z"/><path fill-rule="evenodd" d="M14 9A5 5 0 1 0 4 9a5 5 0 0 0 10 0Zm-5.2 4c1.68 0 4.2-2 4.2-3.92C13 7.15 12.03 5 9.62 5 6.96 5 5 7.06 5 9.16c0 2.9.84 3.84 3.8 3.84Z" fill="#F0F3FA"/><path d="M8.92 6S5.1 7.27 5.01 10.02l-.6.03.8 1.75.29.2S5.58 8.75 8 7.2V11h2l-.41-3H9v-.35h.69v-.3H9V7.2h.69v-.45l.13-.27-.9-.48Z" fill="#F0F3FA"/><path d="M9 9H7.6L7 10h2V9ZM11 7v1l-2-.52L11 7ZM6 11.69h6.25V12H6v-.31ZM5.72 12.44H10v.31H5.87l-.15-.31Z" fill="#F0F3FA"/></svg>