<!-- by TradingView --><svg width="18" height="18" viewBox="0 0 18 18" xmlns="http://www.w3.org/2000/svg"><path fill="#F0F3FA" d="M0 0h18v18H0z"/><path d="M10.9 5.05c.04.05.06.17.06.26 0 .12-.1.38-.18.69.16.24.77 1 1.18 1.52.03.04.04.15.04.15 0 .33-.3.86-.73 1.06a.1.1 0 0 1-.12-.01L10.38 8c-.08.05-.22.33-.4.33-.41.01-.98-.7-.98-1.23 0-.14.03-.28.3-.4l.22.18a.49.49 0 0 0-.06.25c.02.34.28.64.53.65.16.01.24-.37.4-.38.02 0 .05 0 .07.03l.76.72c.2-.13.26-.21.34-.48 0 0-1.06-1.22-1.18-1.38a.2.2 0 0 1-.02-.16c.06-.23.13-.4.14-.5-.32.18-.3 0-.64.04-.96 0-1.38 1.14-1.36 2.63.01.88.17 1.76.42 2.58l-.45.12A9.48 9.48 0 0 1 8 8.3c-.02-1.71.58-3.13 1.86-3.12.37-.05.56.07.88-.16.06-.04.13-.02.17.03Z" fill="#26304E"/><path d="M12 11.13c0 .44-.53 1.87-.88 1.87H8v-.5h3c.23-.22.5-.97.5-1.37 0-1.02-1.99-1.21-2-2.75 0-.12.01-.25.04-.38l.46.1c-.02.1-.02.21-.02.3 0 1.23 2.01 1.3 2.02 2.73Z" fill="#26304E"/><path d="M7.81 9H6.14a.14.14 0 0 0-.14.14v2.36h-.86a.14.14 0 0 0-.14.14v2.22c0 .08.06.14.14.14h6.09c1.46-.05 2.77-.9 2.77-2.53A2.55 2.55 0 0 0 11.53 9h-1.47v.5h1.45c1.2 0 1.99.78 1.99 1.97 0 1.48-1.2 1.98-2.52 2.03H5.5V12h.86c.08 0 .14-.06.14-.14V9.5h1.31V9Z" fill="#26304E"/><path d="M5.14 4a.14.14 0 0 0-.14.13v1.73c0 .03.01.07.04.1.03.02.06.03.1.03L6 6v3.37c0 .07.06.13.14.13h1.99V9H6.5V5.63a.14.14 0 0 0-.14-.13H5.5v-1h5.3c1.1.04 2.2.67 2.2 2 0 1.12-.83 2.5-1.68 2.5h-1.27v.5h1.27c1.15-.02 2.18-1.76 2.18-3 0-1.49-1-2.5-2.7-2.5H5.14Z" fill="#26304E"/></svg>