<!-- by TradingView --><svg width="18" height="18" viewBox="0 0 18 18" xmlns="http://www.w3.org/2000/svg"><path fill="#F0F3FA" d="M0 0h18v18H0z"/><path d="M9.42 13.14c-.27.13-.67.18-.97 0v-2.95c.45.07.68-.06.96-.22l.01 3.17ZM5.44 6.87 4 6.53c0 .65-.05 4.26.08 4.47.13-.22.47-2.82.5-3.42.68-.1 2.25.27 2.94 1.08.37.36.47.84.47 1.9v2.2a8.6 8.6 0 0 0-1.69-.64c-1.36-.22-1.97-.11-2.31.1.1.17 1.02.47 1.44.55.8.15 2.38.26 2.6 1.2.99.1 1.12-.06 1.5-.25l.46-.07V9.02c-.54-.01-.8.6-1.54.42C8.2 7.54 7 7.4 5.53 6.88l.1-.88c.87.08 2.84 1.63 3.27 2.38.13.23.13-.23.34-.26C8.98 7.05 6.48 5.29 5.44 5v1.87ZM13.74 5.4 14 5l-.47.07c-.22.03-.53.15-.86.3a8.6 8.6 0 0 0-2.08 1.44c-.28.3-.5.6-.59.93l.2.05.04.21h.04c.01 0 .08 0 .15-.04l.07-.07.01-.03.06-.1c.35-.49.71-.77 1.3-1.14.26-.16.5-.3.74-.41l.33-.18c.32-.17.62-.37.8-.64Z" fill="#9B9D9E"/></svg>