<!-- by TradingView --><svg width="18" height="18" viewBox="0 0 18 18" xmlns="http://www.w3.org/2000/svg"><path fill="#F0F3FA" d="M0 0h18v18H0z"/><path d="M6 4v6.5H5V4h1ZM7.5 4v6.5h-1V4h1ZM9 4v6.5H8V4h1Z" fill="#2B2A29"/><path d="M6.5 10.5v.05a3 3 0 0 0 5.96.45h-1a2 2 0 0 1-3.96-.5h-1Zm2.25-1.8a2 2 0 0 1 2.68 1.3h1.02a3 3 0 0 0-3.7-2.36V8.7Z" fill="#2B2A29"/><path d="M8 10.5a1.5 1.5 0 0 0 2.91.5H9.5a.5.5 0 0 1 0-1h1.41a1.5 1.5 0 0 0-1.99-.89v1.39H8Z" fill="#2B2A29"/><path d="M9.5 15A4.5 4.5 0 0 1 5 10.5h1a3.5 3.5 0 0 0 6.96.5h1.01a4.5 4.5 0 0 1-4.47 4Zm3.46-5h1.01A4.5 4.5 0 0 0 9 6.03v1A3.5 3.5 0 0 1 12.96 10Z" fill="#2B2A29"/><path fill="#00AEEF" d="M10 10h5v1h-5z"/></svg>