<!-- by TradingView --><svg width="18" height="18" viewBox="0 0 18 18" xmlns="http://www.w3.org/2000/svg"><path fill="#933" d="M0 0h18v18H0z"/><path d="M9 3a6 6 0 1 1 0 12A6 6 0 0 1 9 3Z" fill="url(#abjx4zg1n)"/><path d="M9 3.38a5.63 5.63 0 1 1 0 11.25A5.63 5.63 0 0 1 9 3.37Z" fill="url(#bbjx4zg1n)"/><path d="M9 4a5 5 0 1 1 0 10A5 5 0 0 1 9 4Z" fill="#D34022"/><path d="m5 9 1-1.17V6h1.83L9 5l1.17 1H12v1.83L13 9l-1 1.17V12h-1.83L9 13l-1.17-1H6v-1.83L5 9Z" fill="#414D88"/><path d="M8 9h1v1H8V9Z" fill="#F0F3FA"/><path d="M8.58 9.26v.19h.17v.03c0 .15-.11.27-.25.27s-.25-.12-.25-.27a.3.3 0 0 1 0-.03h.16v-.18c.06-.02.11-.03.17 0Z" fill="#CE3D20"/><path d="M11 8.17V6.25h-.38l-.23.5S9.9 6 8.73 6A2.93 2.93 0 0 0 6 8.91C6 10.7 7.3 12 8.87 12c1.56 0 1.72-.9 1.72-.9l.17.9h.54v-2h.7V9H9.62v1h.87s.08 1.25-1.37 1.25C7.66 11.25 7 10.2 7 9.13c0-1.05.6-2.46 1.8-2.46 1.2 0 1.73 1.01 1.8 1.5h.4Z" fill="#F0F3FA"/><defs><linearGradient id="abjx4zg1n" x1="4.69" y1="4.69" x2="12.75" y2="13.69" gradientUnits="userSpaceOnUse"><stop stop-color="#D3C78E"/><stop offset="1" stop-color="#7D6014"/></linearGradient><linearGradient id="bbjx4zg1n" x1="4.87" y1="4.72" x2="10.69" y2="14.06" gradientUnits="userSpaceOnUse"><stop stop-color="#BEC4D4"/><stop offset=".5" stop-color="#3E477C"/><stop offset="1" stop-color="#212743"/></linearGradient></defs></svg>