<!-- by TradingView --><svg width="18" height="18" viewBox="0 0 18 18" xmlns="http://www.w3.org/2000/svg"><path fill="#F0F3FA" d="M0 0h18v18H0z"/><path fill-rule="evenodd" d="M13.21 9.06c0-2.93-1.88-5.3-4.21-5.3s-4.21 2.37-4.21 5.3c0 2.93 1.88 5.3 4.21 5.3s4.21-2.37 4.21-5.3Zm-1.37.02C11.84 6.91 10.6 5 9.07 5 7.53 5 6.3 6.91 6.3 9.08 6.3 11.24 7.53 13 9.07 13c1.53 0 2.77-1.76 2.77-3.92Z" fill="#ED3F62"/><path d="M7.68 3.21c-.28.1-.55.21-.8.36l.4.7c.2-.11.43-.21.65-.29l-.25-.77ZM9 3c-.15 0-.3 0-.45.02l.08.81c.25-.02.49-.02.74 0l.08-.8L9 3ZM6.15 4.06c-.22.19-.43.4-.62.61l.62.53c.16-.18.34-.36.53-.51l-.53-.63Zm-1.13 1.3c-.15.24-.29.5-.4.76l.74.33c.1-.22.22-.44.35-.65l-.69-.44Zm-.71 1.55c-.08.28-.15.55-.2.83l.8.14c.05-.25.1-.48.18-.73l-.78-.24Zm-.3 1.67c-.01.28-.02.57 0 .85l.82-.05c-.02-.25-.02-.5 0-.75L4 8.58Zm.1 1.7c.05.27.12.55.2.82l.78-.24a5.93 5.93 0 0 1-.17-.73l-.8.14Zm.5 1.61c.12.26.26.53.42.76l.69-.44a5.4 5.4 0 0 1-.36-.65l-.74.33Zm.93 1.45c.19.21.4.42.62.6l.52-.62a4.36 4.36 0 0 1-.52-.52l-.62.54Zm1.34 1.1c.26.14.53.26.81.35l.25-.77a3.65 3.65 0 0 1-.66-.3l-.4.72Zm1.68.54c.3.03.59.03.88 0l-.08-.81c-.24.02-.48.02-.72 0l-.08.8Zm1.75-.19c.28-.09.55-.21.81-.35l-.4-.71c-.2.11-.45.22-.66.29l.25.77Zm1.53-.85c.23-.19.43-.39.62-.6l-.62-.54c-.15.18-.34.36-.52.52l.52.62Zm1.13-1.3c.16-.24.3-.5.41-.75l-.74-.33c-.1.22-.22.44-.36.65l.7.43Zm.72-1.55c.08-.27.15-.54.2-.82l-.8-.14c-.05.24-.11.49-.18.73l.78.23Zm.3-1.66c.01-.28.02-.58 0-.85l-.82.05c.02.25.02.5 0 .75l.82.05Zm-.1-1.7a6.75 6.75 0 0 0-.2-.82l-.78.24c.07.24.13.49.17.73l.8-.14Zm-.5-1.62a6.28 6.28 0 0 0-.41-.75l-.7.44c.14.2.26.43.36.65l.74-.34Zm-.93-1.44c-.19-.22-.4-.42-.62-.6l-.52.62c.2.16.36.33.53.51l.61-.53Zm-1.34-1.1a4.51 4.51 0 0 0-.8-.36l-.26.77c.23.08.45.18.66.3l.4-.71Z" fill="#ED3F62"/><path d="m7.32 11.94.05-.84c-.2-.02-.13-.96-.13-1.15l.01-1.21.03-.07a.3.3 0 0 1 .02-.08c-.18-.28-.24-.32-.41-.67a2.31 2.31 0 0 0-.44-.68c-.4.66-.42 2.02-.2 2.83.15.59.61 1.88 1.07 1.87Z" fill="#D7A848"/><path d="M9.31 9.73v.31c-.32-.03-.24.02-.44-.22l-.03.25c.13.75-.1.88-.38 1.47.21.08.16.05.31.21l.12.07c.06-.06.17-.06.22-.3l.01-.51.1-.95c.27.22.07.23.6.55l-.24 1.68v.07l.02.29c.2-.12.12-.03.2-.3.04-.1.12-.5.15-.63a5.51 5.51 0 0 1 .03-1.39c.18.1.1.1.13.47.87-.06.1.18.72.1.15-.29.23-.14-.07-.51-.01-.02-.04-.03-.05-.07-.01-.03-.04-.04-.05-.06.14-.13-.08-.04.3-.19-.64 0-1.1-.46-1.65-.34Z" fill="#D97657"/><path d="M8.77 11.75c.05.07.49.9.5.97l.33-.07-.02-.29v-.07l.24-1.68c-.53-.32-.33-.33-.6-.55l-.1.95-.01.5c-.05.25-.16.25-.22.3l-.12-.06Z" fill="#EC926F"/><path d="M9.45 8.94c-.22.26-.2.35-.12.7l-.02.09c.55-.12 1.01.34 1.65.34l.02-.04c0-.22.06-.34-.07-.57-.15-.25-.01-.09-.23.1l-.06.05a.37.37 0 0 1-.07.05c-.08-.12-.08-.13-.18-.24l-.26-.23-.44-.1c.22-.63.68-.72 1.22-.49l.11-.45c-.69.08-1.19.31-1.55.8Z" fill="#E7A466"/><path d="m7.4 9.7.53.72c.15.2.19.35.21.46.03.1.05.18.16.24.46-.61.23-.88-.19-1.37a5.3 5.3 0 0 1-.8-1.16.3.3 0 0 0-.03.08l-.01.02-.02.05-.01 1.2v.16c-.01.33-.03.98.13 1l-.05.84c.27-.11.8-.57.98-.82-.11-.06-.13-.14-.16-.24-.02-.1-.06-.25-.21-.46L7.4 9.7Z" fill="#B75655"/><path d="M8.44 9.64c.21-.17.3-.37.37-.68.14-.2-.21-.16.24-.17.65-.2.39-.14.51-.67.1-.4.2-.23.47-.62h.66l-.12-.26c-.27-.53-.36-.63-1.27-.31-.48.16-.58.25-.94.47l-.95.66.04.17 1.1-.13c.16.06.27.07.39.11.37.12.14-.05.3.18-.2.27-.03.15-.46.19l-.14-.14-1.03-.08c.1.27.22.43.36.66.09.15.1.19.2.31.08.11.2.23.27.31Zm.38-3.04c.26-.02.3-.07.6-.1l.74-.22c-.04-.28-.04-.14-.1-.38-.14-.49-.03-.4.03-.49-.42-.11-1.18-.5-1.61-.08-.58-.07-.9.24-.9.25l-.06.05-.05.06c-.32.2-.67.65-.84 1.04.05.13.1.28.15.36l.08.13.16.18.24.5c.13-.31-.1-.04.23-.35l.35-.26c.28-.24.32-.33.6-.41l.38-.28Z" fill="url(#a2vusnpdv)"/><path d="M7.86 12.06c.28.2.4.27.52.59.29.15.54.14.9.07-.02-.07-.46-.9-.5-.97-.16-.16-.11-.13-.32-.2-.28.16-.3.25-.6.5Z" fill="#6F706F"/><path d="M10.89 8.6c-.2.39-.11.13-.02.66l-.76-.07.26.23c.1.1.1.12.18.24a.38.38 0 0 0 .07-.05l.06-.05c.22-.19.08-.35.23-.1.13.23.07.35.07.57l.23.05.17-.34c-.56-1.46.09-.46-.38-1.6l-.11.46Z" fill="#D4AE8F"/><path d="m10.1 9.19.77.07c-.1-.53-.18-.27.02-.66-.54-.23-1-.14-1.22.48l.44.1Z" fill="#8E706C"/><path d="m9.95 11.72.34-.7c.98-.29.61.38.92-.94l-.23-.05-.02.04c-.38.15-.16.06-.3.19.01.02.04.03.05.06 0 .04.04.05.05.07.3.37.22.22.07.5-.62.09.15-.15-.72-.1-.04-.36.05-.37-.13-.46-.1.13-.06 1.36-.03 1.39Z" fill="#B76656"/><path d="M11.4 8.21c.02-.02.05-.09.05-.07l.04-.08c.02-.1.05-.19.05-.3 0-.54-.19-.25-.31-.73-.09-.32.16-.26-.49-.92.12.38.12.72.23 1.08l.36.89c0 .02.03.05.04.06l.04.07Z" fill="#DAA767"/><path d="m8.44 9.64.25.34.4-.5.08-.04a.61.61 0 0 0 .08-.07c-.06.54-.02.07.08.27-.08-.35-.1-.44.12-.7-.38.01-.27-.04-.64.02-.06.3-.16.5-.37.68Z" fill="#B1906E"/><path d="m7.61 8.36 1.03.08.14.14c.43-.04.25.08.47-.19-.17-.23.06-.06-.31-.18-.12-.04-.23-.05-.38-.1l-1.1.12.15.13Z" fill="#6F706F"/><path d="m10.94 7.96-.15-.44c-.17.15.04.05-.24.14l-.54.14c-.24.15-.3.3-.3.61.34-.34.66-.45 1.23-.45Z" fill="#DA9769"/><path d="M10.38 6.26c0-.17.01-.19-.06-.4-.07-.2-.16-.33-.23-.45-.06.1-.17 0-.03.5.06.23.06.1.1.37l-.73.23c-.31.02-.35.07-.6.09l-.38.28c-.29.08-.33.17-.61.41l-.35.26c-.33.31-.1.04-.23.35l.15.16.95-.66c.36-.22.46-.31.94-.47.91-.32 1-.22 1.27.31l.12.26h-.66c-.26.4-.38.22-.47.62-.12.53.14.47-.5.67-.46 0-.1-.04-.25.17.37-.06.26 0 .64-.02.36-.48.86-.71 1.55-.8l-.06-.18c-.57 0-.9.11-1.23.45 0-.31.06-.46.3-.6l.54-.15c.28-.1.07 0 .24-.14-.12-.28-.11-.32-.18-.63l-.23-.63Z" fill="#6E898F"/><path d="M8.38 12.65c-.12-.32-.24-.38-.52-.6l-.29.24c.26.25.46.3.81.36Z" fill="#C8B151"/><path d="m8.69 9.98.15.1.03-.26c.2.24.12.19.44.22v-.31l.02-.09c-.1-.2-.14.27-.08-.27a.61.61 0 0 1-.08.07c-.02 0-.06.03-.08.05l-.4.49Z" fill="#916F55"/><path fill-rule="evenodd" d="M11.59 9c0-2.03-1.22-3.53-2.59-3.53-1.37 0-2.59 1.5-2.59 3.53S7.63 12.53 9 12.53c1.37 0 2.59-1.5 2.59-3.53ZM12 9c0-2.2-1.34-4-3-4S6 6.8 6 9s1.34 4 3 4 3-1.8 3-4Z" fill="#F0F3FA"/><defs><linearGradient id="a2vusnpdv" x1="10.69" y1="6.52" x2="7.36" y2="8.44" gradientUnits="userSpaceOnUse"><stop offset=".18" stop-color="#58C0E5"/><stop offset="1" stop-color="#3F6BBF"/></linearGradient></defs></svg>