<!-- by TradingView --><svg width="18" height="18" viewBox="0 0 18 18" xmlns="http://www.w3.org/2000/svg"><path fill="#181B1E" d="M0 0h18v18H0z"/><path d="M4 9h2.08L8 14 4 9Z" fill="url(#avfppo1g5)"/><path d="m6 6-.28 2H4l2-2Z" fill="url(#bvfppo1g5)"/><path d="m9 5-2.7.95L6 8l3-3Z" fill="url(#cvfppo1g5)"/><path d="M14 9h-2.08L10 14l4-5Z" fill="url(#dvfppo1g5)"/><path d="m12 6 .28 2H14l-2-2Z" fill="url(#evfppo1g5)"/><path d="m9 5 2.7.95L12 8 9 5Z" fill="url(#fvfppo1g5)"/><defs><linearGradient id="avfppo1g5" x1="6.18" y1="9.42" x2="6.18" y2="13.17" gradientUnits="userSpaceOnUse"><stop stop-color="#FEFAF6"/><stop offset=".17" stop-color="#C08425"/><stop offset=".55" stop-color="#DBA545"/><stop offset="1" stop-color="#705318"/></linearGradient><linearGradient id="bvfppo1g5" x1="4.6" y1="7.2" x2="5.6" y2="8.2" gradientUnits="userSpaceOnUse"><stop offset=".28" stop-color="#FCFCF3"/><stop offset=".5" stop-color="#916216"/></linearGradient><linearGradient id="cvfppo1g5" x1="6.25" y1="6.07" x2="7.1" y2="7.06" gradientUnits="userSpaceOnUse"><stop offset=".23" stop-color="#F7E8CD"/><stop offset=".59" stop-color="#92651B"/></linearGradient><linearGradient id="dvfppo1g5" x1="12" y1="9" x2="13.24" y2="10.08" gradientUnits="userSpaceOnUse"><stop offset=".24" stop-color="#F6E5C4"/><stop offset=".78" stop-color="#634918"/></linearGradient><linearGradient id="evfppo1g5" x1="13" y1="6.8" x2="12.8" y2="8" gradientUnits="userSpaceOnUse"><stop offset=".21" stop-color="#FDF8EA"/><stop offset=".69" stop-color="#A77D3F"/></linearGradient><linearGradient id="fvfppo1g5" x1="10.5" y1="5" x2="10.13" y2="7.16" gradientUnits="userSpaceOnUse"><stop offset=".32" stop-color="#F8E6D2"/><stop offset=".54" stop-color="#84530E"/></linearGradient></defs></svg>