<!-- by TradingView --><svg width="18" height="18" viewBox="0 0 18 18" xmlns="http://www.w3.org/2000/svg"><path fill="#F0F3FA" d="M0 0h18v18H0z"/><path d="M4 12h10v1H4v-1ZM9.18 6h1.57L12 8.04l-1.34.3-.74-1.27-1.1 1.5S8.25 8.96 7 9l2.18-3ZM12.42 9.01 13.47 11h-1.19s-.25 0-.38-.26l-.56-1.1 1.08-.63Z" fill="#0A7251"/><path d="M14 5v1s-1.13.82-1.43.96c0 0-.08.04-.17.04-.1 0-.2-.06-.25-.26L12 6.25s.13 0 .33-.12C12.54 6.01 14 5 14 5Z" fill="#EA222C"/><path d="M14 6.14V7.3S9.14 11 6.8 11C4.49 11 4 9.35 4 8.51c0-.84.47-2.97 3.2-3.5.34-.06.66.22.8 1-.25 0-1.08.28-1.82.69a2.69 2.69 0 0 0-1.43 2.39c0 .5.5.77 1.28.77.7 0 1.63-.21 2.65-.61 1.46-.6 3.26-1.77 5.32-3.1Z" fill="#169C9F"/></svg>