<!-- by TradingView --><svg width="18" height="18" viewBox="0 0 18 18" xmlns="http://www.w3.org/2000/svg"><path fill="#F0F3FA" d="M0 0h18v18H0z"/><path d="M5 3h8v12H5V3Z" fill="#0599A7"/><path d="M5.5 3.5h7V11h-7V3.5Z" fill="#90CFD6"/><path d="M5.5 11.5h7v3h-7v-3Z" fill="#F0F3FA"/><path d="M8.7 4s-.2.11-.2.25c0 .28.25.5 1 .5.15 0 .32-.05.5-.08 0 0-.25.33-1 .33-.7 0-1-.31-1-.55 0-.3.48-.44.7-.45Z" fill="#039CA8"/><path d="M7.38 9.67s-.21-1.13.28-2.31c.5-1.18.53.4.53.4l1 1.95.14.28c.02 0-.86.1-1.95-.32Z" fill="#004151"/><path d="M9.93 10H9.9c-.28.01-2.45.07-2.11-2.45l-.32-.2s-.23.14-.47.16c0 0-.01-.46.06-.73 0 0 .11.14.38.06 0 0 .67-.84 1.6-.84s1.41.64 1.41.64.16-.01.16-.2c0-.2.38-.25.39.19 0 0-.06-.1-.17-.1-.1 0-.04.33-.34.37l-.03.87.33.48-.24.19s-.01.1.08.1c.1 0-.02.13-.02.13s.08.14-.06.14c0 0-.06.08.01.19.07.1-.12.27-.4.23-.27-.04-.29 0-.29 0s-.2.44.06.77Z" fill="#039CA8"/><path d="M10.6 6.92s-.6-.02-1.27.3V10l.18-.01V7.6l1.16-.23-.07-.46Z" fill="#004151"/><path opacity=".5" fill="#0599A7" d="M7 12h1v2H7zM9 12h1v2H9zM11 12h1v2h-1z"/></svg>