<!-- by TradingView --><svg width="18" height="18" viewBox="0 0 18 18" xmlns="http://www.w3.org/2000/svg"><path fill="#F0F3FA" d="M0 0h18v18H0z"/><path d="M6 11.73v-1.46c0-.15.08-.27.18-.27h5.64c.1 0 .18.12.18.27v1.46c0 .15-.08.27-.18.27H6.18c-.1 0-.18-.12-.18-.27Z" fill="#8093A2" fill-opacity=".5"/><path fill-rule="evenodd" d="M9 4.96v-.87h-.3V4h.67v.1h-.25v.86h.08l.5.64h.3v.52h.4l-.4.13V10H8V6.25l-.25-.13H8V5.6h.4c.17-.16.52-.64.52-.64H9Zm5.54 4.54-.42-.23.42-.4.42.4-.42.23Zm0 .38L16 9.13l-1.33 1.84v.69c0 .19-.05.34-.26.34H3.63c-.2 0-.3-.15-.3-.34v-.7L2 9.13l1.49.77 1.46-.77-1.28 1.8v.23c0 .19.2.34.41.34h9.8c.21 0 .45-.15.45-.34v-.28l-1.28-1.75 1.48.75ZM3.48 9.5l-.42-.23.42-.4.42.4-.42.23ZM9 5.6v-.48h.2l.36.48H9Zm.87.32v.32h-.88l-.17-.32h1.05Z" fill="#1786CD"/></svg>