<!-- by TradingView --><svg width="18" height="18" viewBox="0 0 18 18" xmlns="http://www.w3.org/2000/svg"><path fill="#F0F3FA" d="M0 0h18v18H0z"/><path d="M15 9.24c0-2.14-.9-4.02-2.44-5.24v1.26c-.9-.7-2.05-1.11-3.28-1.11A5.37 5.37 0 0 0 4 9.57 5.37 5.37 0 0 0 9.28 15a5.4 5.4 0 0 0 3.28-1.1v.58A6.5 6.5 0 0 0 15 9.24Zm-1.5.55c0 2.67-2 4.71-4.46 4.71A4.77 4.77 0 0 1 4.5 9.8C4.5 7.12 6.57 5 9.04 5s4.46 2.13 4.46 4.8Z" fill="url(#an41rwjtm)"/><path d="M7 6.6s-1.5.98-1.5 3.15c0 2.16 1.54 4.05 3.93 4.05 2.35 0 2.57-1.47 2.57-2 0-.52-.07-.97-2.09-1.77C7.9 9.23 7 8.5 7 6.6Z" fill="url(#bn41rwjtm)"/><path d="M12.84 10s.16-.39.16-.83C13 8.72 12.05 6 9.93 6c-.57 0-.93.6-.93.98 0 .35.33.92 1.54 1.33 1.2.41 2.16.98 2.3 1.69Z" fill="url(#cn41rwjtm)"/><path d="M9.38 3c1.17 0 2.26.31 3.22.83a6.42 6.42 0 0 0-8.86 5.78c0 2.3 1.28 4.31 3.16 5.39A6.22 6.22 0 0 1 3 9.23 6.3 6.3 0 0 1 9.38 3Z" fill="url(#dn41rwjtm)"/><defs><linearGradient id="an41rwjtm" x1="15.37" y1="9.21" x2="4.01" y2="9.21" gradientUnits="userSpaceOnUse"><stop stop-color="#372A52"/><stop offset="1" stop-color="#0070B2"/></linearGradient><linearGradient id="bn41rwjtm" x1="9.6" y1="8.68" x2="6.39" y2="13.82" gradientUnits="userSpaceOnUse"><stop offset=".13" stop-color="#22558F"/><stop offset=".56" stop-color="#362A51"/></linearGradient><linearGradient id="cn41rwjtm" x1="13.05" y1="10.24" x2="8.65" y2="6.04" gradientUnits="userSpaceOnUse"><stop offset=".25" stop-color="#323F72"/><stop offset=".64" stop-color="#00A7EA"/><stop offset="1" stop-color="#0081C6"/></linearGradient><linearGradient id="dn41rwjtm" x1="12.98" y1="5" x2="2.65" y2="6.82" gradientUnits="userSpaceOnUse"><stop offset=".41" stop-color="#333B75"/><stop offset="1" stop-color="#8BBCE6"/></linearGradient></defs></svg>