<!-- by TradingView --><svg width="18" height="18" viewBox="0 0 18 18" xmlns="http://www.w3.org/2000/svg"><path fill="#F0F3FA" d="M0 0h18v18H0z"/><path fill-rule="evenodd" d="M5.21 8.44h-.97c-.13.08-.03.66.07 1.21.07.36.13.7.13.9 0 .53-.44 1.52-.44 1.52V14h9v-1.44c0-.53-.1-.77-.4-1.18a2.79 2.79 0 0 1-.6-1.74c-.04-.5.48-1.28 1-2.07.5-.75 1-1.5 1-2 0-1-.97-1.57-1.54-1.57-.57 0-.73.15-.73.15l-2.9 1.43H7.27c-1.15.58-1.96 1.9-1.92 2.34.03.43-.14.52-.14.52Zm1.86 2.36-.18-.34c-.02-.07-.16.03-.55.5l-.08.1c-.1.12-.23.25-.25.46-.1 1.1.5 1.48.5 1.48h3.35c.13-.04.14-.3.14-.3-.35-.3-.6-.79-.78-1.14l-.15-.3c-.17-.28-.2-.6-.2-.6S8.5 10 8.43 10c-.38 0-.4.1-.45.26l-.01.05c-.03.1 0 .25.01.4.02.11.04.23.03.32a.65.65 0 0 1-.15.32c-.05.06-.1.12-.12.18-.06.16.17.78.25 1 .02.05.03.1.02.14-.02.14-.18.26-.36.27-.2.02-.22-.17-.26-.41l-.02-.12c-.02-.11-.06-.23-.1-.36-.07-.2-.14-.42-.14-.64 0-.36.12-.5.12-.5l-.17-.1Zm2.03-.47s.43-.33.66-.33c.23 0 .74.05 1.02.78.13.35.22.75.22 1.12 0 .41-.08.78-.32 1.03-.08.09-.14.07-.18.06h-.04c-.16-.03-.12-.43-.04-.58.08-.14-.05-.43-.14-.61l-.05-.16a.4.4 0 0 1 0-.05c.01-.06.03-.12-.07-.2-.09-.08-.1-.23-.12-.38 0-.04 0-.08-.02-.12-.02-.18-.08-.38-.2-.34-.14.03-.17.13-.16.24 0 .06 0 .1-.03.15l-.04.14c-.01.07-.06.12-.12.13-.06 0-.15-.02-.17-.07l-.01-.06-.04-.16a1.6 1.6 0 0 0-.23-.37c-.08-.11.08-.22.08-.22ZM7.51 6.52l.08-.05.14-.08c.13-.06.27-.14.27-.21C8 6.13 7.96 6 7.76 6c-.65 0-1.35.87-1.63 1.53-.13.28-.16.45-.1.47.03 0 .17-.05.27-.2.63-.93 1.02-1.17 1.21-1.28ZM12.5 6a.5.5 0 1 0 0-1 .5.5 0 0 0 0 1Zm-2.99.51c-.96.28-1.5 1.37-1.5 1.4-.01.04.01.13.1.07l.07-.08c.24-.27.92-1.05 1.7-1.23.92-.2 1.12-.39 1.12-.49 0-.1-.04-.15-.13-.17-.1-.03-.21 0-.24.12-.01.08-.09.1-.48.2l-.64.18Z" fill="#021E9B"/></svg>