<!-- by TradingView --><svg width="18" height="18" viewBox="0 0 18 18" xmlns="http://www.w3.org/2000/svg"><path fill="#F0F3FA" d="M0 0h18v18H0z"/><path fill-rule="evenodd" d="M13 5H5v8h8V5Zm-.5.5h-7v7h7v-7Z" fill="#002650"/><path fill-rule="evenodd" d="M11.93 6.07H6V12h5.93V6.07Zm-.43.43h-5v5h5v-5Z" fill="#001E61"/><path fill-rule="evenodd" d="M11 7H7v4h4V7Zm-.5.5h-3v3h3v-3Z" fill="#013B85"/><path d="M8 8h2v2H8V8Z" fill="#0065AB"/><path d="M13 13H9V9h4v4Z" fill="#0C3A25"/><path d="M12.5 12.5h-3v-3h3v3Z" fill="#F0F3FA"/></svg>