<!-- by TradingView --><svg width="18" height="18" viewBox="0 0 18 18" xmlns="http://www.w3.org/2000/svg"><path fill="#F0F3FA" d="M0 0h18v18H0z"/><path d="M5.18 4h7.64c.1 0 .18.08.18.17V12H5V4.16c0-.1.09-.16.18-.16Z" fill="#013780"/><path d="M5.18 14h7.64c.1 0 .18-.07.18-.15V13H5v.84c0 .09.09.16.18.16Z" fill="#E52E1C"/><path d="M7 6h4L9 9 7 6Z" fill="#0084C7"/><path d="M7 5h4L8.98 8.24 7 5Z" fill="#09C2F0"/><path d="M7.3 4.59h3.4L8.98 7.53 7.3 4.59Z" fill="#fff"/><path opacity=".5" fill="#F0F3FA" d="M6 10h6v1H6z"/></svg>