<!-- by TradingView --><svg width="18" height="18" viewBox="0 0 18 18" xmlns="http://www.w3.org/2000/svg"><path fill="#F0F3FA" d="M0 0h18v18H0z"/><path d="M15 6v4.55s-.19-.05-.7-.05c-1.09 0-4.93 2.5-7.27 2.5s-3.8-.78-4.03-2.01V7s.27 1.12 3.01 1.12C9.45 8.14 12.51 6.04 15 6Z" fill="url(#arzdq402h)"/><path d="M7 5a2 2 0 0 1 1.86 1.26L6.83 7.89 5.06 6.56C5.26 5.66 6.06 5 7 5Z" fill="#00ADEF"/><path d="m5.06 6.56 1.77 1.33 2.03-1.63A2 2 0 1 1 5 7c.01-.16.02-.3.06-.44Z" fill="#14B14C"/><path d="m5.73 6.75 1.3 1.08 1.2-1.28c.07.15.1.32.1.49 0 .71-.6 1.3-1.32 1.3-.73 0-1.34-.59-1.34-1.3 0-.13.04-.2.06-.3Z" fill="#CAD92C"/><path d="M7 5.67c.54 0 1.03.36 1.22.87l.04.11L7 8 5.7 6.74c.13-.62.66-1.07 1.3-1.07Z" fill="#F0F3FA"/><path d="M4.43 6.73S5.93 6.4 7.01 9c0 0 .74-2.65 3.79-2.89 0 0-.3-.12-.77-.11-.75.01-1.84.32-3.03 1.7.01 0-1.19-1.61-2.57-.97Z" fill="url(#brzdq402h)"/><path opacity=".5" d="M7.5 9.5C6.3 9.5 4.67 9.17 4 9v2c.5 0 1.1.5 3.5.5s3-1.5 6.5-1.5V7c-2 0-4.5 2.5-6.5 2.5Z" fill="#F0F3FA"/><defs><linearGradient id="arzdq402h" x1="2.81" y1="8.21" x2="15.13" y2="8.39" gradientUnits="userSpaceOnUse"><stop offset=".1" stop-color="#0B132E"/><stop offset=".19" stop-color="#14A2DD"/><stop offset=".25" stop-color="#16284F"/><stop offset=".32" stop-color="#132143"/><stop offset=".4" stop-color="#1BA6E0"/><stop offset=".48" stop-color="#17284F"/><stop offset="1" stop-color="#0B132E"/></linearGradient><linearGradient id="brzdq402h" x1="4.26" y1="6.67" x2="10.16" y2="6.62" gradientUnits="userSpaceOnUse"><stop offset=".05" stop-color="#F3171A"/><stop offset=".44" stop-color="#89161A"/><stop offset=".45" stop-color="#F89448"/><stop offset=".95" stop-color="#C32726"/></linearGradient></defs></svg>