<!-- by TradingView --><svg width="18" height="18" viewBox="0 0 18 18" xmlns="http://www.w3.org/2000/svg"><path fill="#F0F3FA" d="M0 0h18v18H0z"/><path fill-rule="evenodd" d="M4 10V6h5.53C11.18 6 12 6.64 12 7.63 12 9.67 10.7 10 8.88 10H4Zm1-.57V6.57h4.24c1.17 0 1.76.3 1.76 1.3 0 1.56-.67 1.56-2.08 1.56H5Z" fill="#181B1E"/><path d="M13 6h1v4h-1V6Z" fill="#BD2130"/><path d="M3 11h3v1H3v-1Z" fill="#34A9A1"/><path d="M6 11h3v1H6v-1Z" fill="#E38737"/><path d="M9 11h3v1H9v-1Z" fill="#D34131"/><path d="M12 11h3v1h-3v-1Z" fill="#BD2130"/></svg>