<!-- by TradingView --><svg width="18" height="18" viewBox="0 0 18 18" xmlns="http://www.w3.org/2000/svg"><path fill="#F0F3FA" d="M0 0h18v18H0z"/><path d="M5.06 11.8C6.66 9.24 7.5 6.5 7.5 6.5c-.53-.3-.52-.5-.5-.96v-.29C7 4.55 8.37 4 10.08 4 11.8 4 13 5.81 13 7.39 13 11.62 8.46 14 8 14c-.47 0-.85-.9-.85-.9s-.29.9-.76.9c-.4 0-.74-.55-1.06-1.06l-.13-.2c-.35-.57-.14-.93-.14-.93ZM11 6.64c0-.87-1.7-.58-1.7-.58s-.3.49.13.6c.37.11.36.41.35.76v.15C9.78 9.09 8 12 8 12c1.93-1.58 3-4.5 3-5.37Z" fill="#003864"/></svg>