<!-- by TradingView --><svg width="18" height="18" viewBox="0 0 18 18" xmlns="http://www.w3.org/2000/svg"><path fill="#F0F3FA" d="M0 0h18v18H0z"/><path d="M4.68 13s1.24-.52 1.7-.95c.54.3 1.4.34 1.93.34.91 0 3.37-.64 4.37-3.08S13.51 5.7 14 5c0 0-8.18.92-8.18 4.79v1.76s-.41.82-1.78.84c0 0-.28.41.64.61Z" fill="url(#ayzprb43a)"/><path d="M11.43 6s-.16 1.42 1.46 1.3c0 0-.8.46-1.38-.02-.6-.49-.08-1.28-.08-1.28Z" fill="#84B94E"/><path d="M10.35 6s-.32 2.38 2.54 2.26c0 0-.33.28-1.23.23-.91-.04-2.05-1.03-1.3-2.49Z" fill="#84B94E"/><path d="M9.18 7s-.14 2.33 2.6 2.34c0 0-.13.16-1.37.16-.97 0-1.46-.98-1.4-1.83 0-.24.07-.47.17-.67Z" fill="#84B94E"/><path d="M8.12 8s-.1 2.54 2.55 2.28c0 0-.23.22-1.1.22-.86 0-2.23-1.14-1.45-2.5Z" fill="#84B94E"/><path d="M7.48 8.5s-.08 2.34 2.08 2.32c0 0-.3.18-1.03.18S6.99 9.87 7.48 8.5Z" fill="#84B94E"/><path d="M6.98 9.5s-.22 1.93 1.46 1.85c0 0-.25.15-.75.15-.37 0-.9-.54-.91-1.23 0-.24.05-.5.2-.77Z" fill="#84B94E"/><path d="m12.89 6-.31 1.2-.26-.37-1.19 2.38-.65-1.01-1 2.01-1.3-1.15L6.75 12l-.52-.46L8.08 8.4 9.32 9.5l1.06-1.96.8.78 1-1.62-.55-.06L12.89 6Z" fill="#F0F3FA"/><defs><linearGradient id="ayzprb43a" x1="13.72" y1="8.25" x2="6.05" y2="10.38" gradientUnits="userSpaceOnUse"><stop offset=".02" stop-color="#157038"/><stop offset="1" stop-color="#52A643"/></linearGradient></defs></svg>