<!-- by TradingView --><svg width="18" height="18" viewBox="0 0 18 18" xmlns="http://www.w3.org/2000/svg"><path fill="#F0F3FA" d="M0 0h18v18H0z"/><path fill-rule="evenodd" d="M9 5.5c-2.23 0-5.5.87-5.5 3.5 0 2.64 3.27 3.5 5.5 3.5s5.5-.87 5.5-3.5c0-2.64-3.27-3.5-5.5-3.5ZM15 9c0-2.2-2.69-4-6-4-3.32 0-6 1.8-6 4s2.69 4 6 4 6-1.8 6-4Z" fill="#622300"/><path d="m7.37 7.33-.2.1c-.08.06-.08.08-.19.11-.27.02-.09.04-.54.12l-.61.75c-.33.42-.33.61-.44.76-.2.26.02.2-.28.3-.22.09-.08.09-.27.17l-.31.17c-.17.08-.14-.02-.28.1.07.07.04.09.2.08.21-.02.07-.02.14-.05.36-.19.17 0 .4-.13.12-.05.08-.1.26-.1.17.01.18.13.55.38l.07.06.64.37c.39.26.57.35 1.05.48.15.04.27.02.65.02.34.43.9.04 1.16.03.38-.03.34-.1.62-.16l.4-.2c.2-.17.33-.25.65-.36.24-.04.24 0 .46-.13l.11-.06.03-.03-.41.01c-.05-.07-.05-.12-.08-.2-.07-.18.35.26.35.02 1.38-.05.97-.88-1.78-2.3.12.01-1.68-.3-1.57-.36-.35.04-.32-.08-.78.05Z" fill="#AC4301"/><path d="M7.37 7.33c.33-.09.5.15.44.45.73.02.25-.17.86-.14l.35.98c.23.2.38.38.91.4.2 0 .81 0 .98-.04.14-.04.11-.05.32-.05-.02.3-.2.25-.05.45.2-.07 0-.16.28-.16.13.24.41.51.1.66-.28-.2.08-.21-.48-.23 0 .23 0 .09.06.26.04.1.04.14.08.21h.42c.14-.18.13-.12.31-.18l.29-.2c.26-.32 1.6-1.03 1.5-1.27-.22-.27-.44-.2-.73-.41-.55-.42-.72-.23-1.08-.4-.14-.07-.1-.13-.3-.16-.37-.08-.15-.07-.36-.14-.32-.12-.51-.13-.77-.23-.16-.04-.13-.1-.37-.11a9.3 9.3 0 0 0-1.5.02c-.38.08-.1.15-.87.14h-.22c-.25.04-.13.01-.17.15Z" fill="#8C2A00"/><path d="M6.43 9.24h.21c-.01-.12-.01-.1-.05-.18h-.23c-.06.07-.03.01-.07.11l-.03.11c-.06.27-.14.13-.37.27l.03.16c.22.1.23-.04.44.22l.24.37c-.2-.05-.27-.1-.4-.17.14.17.27.21.44.33.11.08-.04.13.6.36.29.13.4.16 1.1.15.21.05.1.08.26.13.33.09.3-.13.65-.15l.27-.01c.17-.05 0 0 .09-.05l.26-.1h.04l.03-.02h-.15c-.35.06-.18.17-.9.16.28-.28.25.12.4-.36l.46-.01.16-.16c-.15-.12-.04-.07-.13-.2l-.3-.3c-.62-.6-.12-.63-.46-.76-.11-.04-.5.03-.43.15-.21-.28-.03-.21.03-.49.04-.2.14-.36.07-.53-.06-.15-.02-.05-.1-.12-.17.07-.03-.03-.12.11-.06.1.06 0-.15.26-.06.08-.19.3-.22.4l.21.16c-.25.02-.51 0-.73.06-.03.08-1.27.29-1.15.1Z" fill="#BB5301"/><path d="M7.52 9.3c-.14.17-.1.06-.23.16l-.04.05c-.08.1 0 .1-.14.14-.19-.16.08-.36-.38-.3-.06-.1.09.02-.09-.1l-.21-.02c-.04.07-.04.1-.1.16-.32.36-.05.23.15.54l.26.37c.21-.09.15-.15.37-.26.19.15-.02.05.37.25l.18-.08c.29.33.51-.01.7.43l.52.07c.01-.26 0-.2-.1-.35-.08-.1-.1-.17-.16-.26l-.35-.44-.2-.22-.1-.2c-.07-.12-.39.03-.45.05Z" fill="#CC6B02"/><path d="M7.22 8.91c-.08-.22.1-.69.26-.77.15.1.16.03.1.56-.3.1-.14.14-.36.21Zm.59-1.13c-.05-.04-.01.01-.09-.1l-.06-.1c-.36-.02-.17.05-.41.13l-.18.03c.08.16.1 0 .1.28 0 .36 0 .47-.27.53-.05-.2.01-.39-.07-.52H6.7l-.11.42c-.06.18-.04.38-.03.56l.36.01c.17.04.07.08.34.08.29-.1.07-.12.5-.13.04-.2.12-.17 0-.37-.15-.26-.08-.09 0-.33-.13-.17-.15-.04-.14-.3h.36c-.09-.12-.15-.02-.17-.19Z" fill="#C46302"/><path d="M13.2 8.79c-.06.16.06 0-.14.11l-.25.2c-.04-.06-.01 0-.04-.1a.28.28 0 0 1 0-.07c-.02-.03-.02-.11-.02-.16-.26-.02-.73-.03-.92.11-.2.14-.14.22-.09.33l.1.14c.15.03.4.06.53.02.25-.08.14-.27.32-.16-.06.05 0 0-.07.04l-.08.05-.03.02-.1.11c-.13.14-.07.2-.16.3l-.29.2c-.18.06-.17 0-.31.17l.16.03c.1-.2.08-.07.28-.17.1-.05.14-.13.24-.16.02-.08.04-.16.08-.22a.22.22 0 0 1 .06-.07c.09-.06.04-.03.13-.05 0-.17-.08-.04.1-.16.2-.13.97-.58.79-.92l-.02.23c-.17.09-.23 0-.27.18Z" fill="#A43B01"/><path d="m10.12 7.68.12-.13.02-.03c.24.03.2.07.41-.07l-.05-.16c-.73-.01-.5-.3-1.2-.2-.34.05-.43.33-.4.48.04.26.65.07.7.06.32-.08.17.04.4.05Z" fill="#671A01"/><path d="M8.19 9.62c-.05-.03-.1-.03-.18-.14-.05-.07-.06-.12-.1-.2-.22.02-.27.03-.33.18l.5.54c.36.24.14.38.57.46-.02-.16-.05-.22-.17-.37l-.04-.05-.02-.02c-.1-.1-.23-.26-.23-.4Z" fill="#E29706"/><path d="M10.37 8.67c.17.05.08.07.33.09.05-.46-.14-.22-.39-.37-.3-.18.06-.26-.5-.23-.04.46 0 .55.25.52.18-.02.08-.08.3-.01Z" fill="#A43B01"/><path d="M7.16 10.76h.13c.17.04.3.06.49.03-.08-.22-.06-.09-.16-.19-.07-.08-.05-.04-.07-.18-.27-.03-.2-.12-.5-.15-.06.1-.12.13-.14.25.18.12.18 0 .25.24Z" fill="#AC4301"/><path d="M9.51 9.34c.04.08-.02.04.1.12l.11.06c.12.05.17.08.33.08l-.1-.56L9.94 9c-.23.05-.34.04-.53-.07-.02-.01-.26-.28-.28.21.1.1.19.18.38.2Z" fill="#BD5B01"/><path d="M7.22 8.91c.22-.07.07-.11.36-.21.06-.52.06-.47-.1-.56-.16.08-.34.56-.26.77ZM6.76 9.44c.08.16.15.12.02.3-.17-.05-.07.07-.17-.12-.03-.04-.05-.14-.06-.2l.21.02Zm0 0V9.4l-.02-.03-.01-.03H6.5a.82.82 0 0 1-.1.12c-.13.15-.05-.02-.1.16.09.06.07.05.28.05l.1.2c.4-.02.23.05.46.07-.02-.33-.02 0-.24-.39-.09-.17.02-.09-.14-.11Z" fill="#D88705"/><path d="M9.51 9.34c.25.02.13.12.43.16.04-.22-.05-.15-.04-.41l-.56-.04c.05.18.1.13.17.3Z" fill="#D47702"/><path d="m8.7 9.18.25.37c.14.13.05.15.26.22 0-.21-.12-.32-.13-.33-.17-.27-.14-.14-.18-.24l-.2-.02Z" fill="#CB7505"/><path d="M11.06 8.78c.15-.1 0-.37 0-.37l-.01-.03c-.47.05-.16.5 0 .4Z" fill="#771B00"/></svg>