<!-- by TradingView --><svg width="18" height="18" viewBox="0 0 18 18" xmlns="http://www.w3.org/2000/svg"><path fill="#F0F3FA" d="M0 0h18v18H0z"/><path d="M8.7 5.52c-.07-.1-.03-.2.11-.23.04.04.09.05.03.16-.05.1-.04.05-.15.07Zm2.81 7.3-.06-.03-.3.6c.01-.18.07-.29-.02-.47l-.2.27-.27.23c-.37 0-.23-.15-.5-.27-.37-.04-.32.08-.6.12-.14-.1-.08-.15-.34-.13-.2.02-.21.08-.44.07l-.05-.12-.2-.07c.03-.14 0-.35.02-.42.02-.1.07-.2.1-.31.04-.22.12-.4.2-.6.08-.22.18-.38.26-.56.09-.2-.02-.18 0-.32 0-.08.07-.22.1-.3a.96.96 0 0 0-.3.22c-.15.15-.12.13-.1.32.02.29-.38 1.08-.56 1.33-.09.13 0 .27-.1.38-.07.11-.08.22-.15.33h-.17c.09-.46.33-1.27.54-1.68.13-.25.26-.47.44-.69.09-.1.2-.18.28-.3.09-.11.1-.24.18-.36v.3c.23-.04.4-.08.55-.15l.16.1c0 .25.1.39.11.52v.03c-.06.45-.57 1.22-.36 1.62.33 0 .36-.24.34-.43a3.3 3.3 0 0 1 .48-1.79c.12-.2.05-.37.11-.58.16-.52.22-1.1.04-1.63-.03-.07-.06-.15-.06-.23l.01-.06c.52-.07.48 1.52.53 1.7l.27-.61v.45c.16-.28.15-1.28-.05-1.6-.06-.1-.09-.05-.1-.17l.15.07c0-.21-.11-.53-.25-.73-.08-.12-.08-.1-.23-.14.11-.06.13-.05.2-.08-.06-.1-.12-.2-.3-.22-.13.08-.06.04-.12.15v-.21c-.62.25-.48.5-.39 1.09a.7.7 0 0 0-.24-.05c-.2-.01-.33.03-.47-.1-.09-.1-.1-.13-.1-.28.02.1.15.19.31.22L10 7.1c-.1-.08-.13-.02-.27-.1l.2-.03a1 1 0 0 0 .1-.46c-.17.15-.47.22-.47-.09.03.07.09.05.2.07.18-.12.2-.15.21-.37 0 0-.02 0-.03.02-.02.05-.07 0-.15 0 .11-.24.16-.31.12-.62-.07.1-.19.3-.32.3h-.02l-.01-.02c0-.03.1-.13.14-.18.14-.24.08-.46.13-.71-.36.1-.14.37-.51.45.1-.15.16-.2.2-.4.04-.23.05-.29.13-.48l-.16-.04c-.18.1-.22.35-.35.47a1.84 1.84 0 0 1-.25-.1c-.06-.36.3-.7-.15-.81.15.4-.2.62-.1.83-.17-.06-.03-.23-.02-.33 0-.11-.06-.24-.11-.33-.04.12.04.22.04.4-.01.2-.06.15-.15.34-.07.17-.13.15-.1.32.02.12-.03.26-.05.42-.03.26-.33.71-.33 1.04 0 .15.08.28.26.34.25-.1.32-.4.41-.65.1-.27.05-.12.25-.25.08-.06.15-.21.17-.31 0 .1 0 .2-.04.28-.08.15-.12.1-.24.2-.08.12-.14.57-.2.76-.09.3-.19.4-.36.64-.32.44-.33.96-.48 1.47-.15.57-.53.77-.5 1.44a3.63 3.63 0 0 1-.09 1c0 .13.04.29.06.4.03.15 0 .1.11.17.36-.13.16-.55.14-.73-.02-.14-.07-.33-.06-.46 0-.16.08-.37.02-.48.3-.22.33-.57.55-.75.19.04.29.05.42 0 .16.36.27.42.13.84-.1.32-.3.48-.4.77-.1.34-.07.5-.26.88l-.3.64c-.04.08-.06.1-.08.2-.26-.04-.2-.1-.4.1-.13.12-.24.2-.46.2-.21-.15-.21-.26-.21-.54-.16.16-.03.36-.01.54H6v.6l6 .01v-.6c-.22-.02-.36-.04-.58 0l.1-.58Z" fill="#2B2B2A"/><path d="M9.1 4.3c-.01.27.06.24-.06.54.16-.08.07.07.16-.13v-.34c-.06-.1.01-.01-.1-.07Z" fill="#2B2B2A"/><path d="m9.1 4.3.02-.11c-.14.15-.2.4-.21.6l.02-.02.02-.02.16-.45Z" fill="#2B2B2A"/></svg>