<!-- by TradingView --><svg width="18" height="18" viewBox="0 0 18 18" xmlns="http://www.w3.org/2000/svg"><path fill="#F0F3FA" d="M0 0h18v18H0z"/><path d="M10.25 9.32s-.22-2.85-3.75-3.27c0 0-1.44-.8-2.5-.41l1.79 2.05 3.4 3.38 4.49.3L14 11c-1.43 0-2.6-.82-3.75-1.68Z" fill="#62A521"/><path d="M4 13h10v-2c-2.5 0-3.96-1.47-3.96-1.47C6.7 9.85 6.5 6.41 6.5 6.41 5.53 5.7 4 5.64 4 5.64V13Z" fill="#004221"/><path d="M9.7 4s-2.78 4.88 2.76 5.63c0-.01 2.35-2.68-2.76-5.63Z" fill="#62A521"/><path d="m13.34 9.13.24.12s1.6-2.05-1.46-4.29L10.64 4S8.21 8.89 12.8 9.63v-.3s-3.91.02-1.96-4.96c0 0 4.24 2.3 2.5 4.76Z" fill="#004221"/></svg>