<!-- by TradingView --><svg width="18" height="18" viewBox="0 0 18 18" xmlns="http://www.w3.org/2000/svg"><path fill="#F0F3FA" d="M0 0h18v18H0z"/><path d="M9 3a6 6 0 0 1 5.96 6.7l-4.76 5.15c-.39.07-.8.15-1.2.15A6 6 0 0 1 9 3Z" fill="url(#a4y5kufot)"/><path d="M9 4c2.77 0 5 2.23 5 5 0 .58-.25 1.35-.55 1.67L11 13.33c-.62.27-.83.67-2 .67A4.99 4.99 0 1 1 9 4Z" fill="url(#b4y5kufot)"/><path d="M12 10s-2.25 1.83-5 1.35c0 0 .78.69 2.21.65.95-.02 2.1-.5 2.79-2Z" fill="#F7EC5B"/><path d="m15 10-5 5s-.06-1.48 1.7-3.15S15 10 15 10Z" fill="url(#c4y5kufot)"/><path opacity=".7" d="m5 9 7-3 1 2-7 3-1-2Z" fill="#F0F3FA"/><defs><linearGradient id="a4y5kufot" x1="3" y1="6.88" x2="13.76" y2="11.65" gradientUnits="userSpaceOnUse"><stop offset=".32" stop-color="#fff"/><stop offset=".95" stop-color="#B1B6BB"/></linearGradient><linearGradient id="b4y5kufot" x1="4.02" y1="7.34" x2="12.83" y2="10.82" gradientUnits="userSpaceOnUse"><stop offset=".39" stop-color="#F6AF39"/><stop offset="1" stop-color="#F06C2A"/></linearGradient><linearGradient id="c4y5kufot" x1="11.46" y1="12.08" x2="12.4" y2="13.16" gradientUnits="userSpaceOnUse"><stop offset=".21" stop-color="#9DA1A8"/><stop offset=".51" stop-color="#FCFBFC"/><stop offset=".82" stop-color="#8A8F97"/></linearGradient></defs></svg>