<!-- by TradingView --><svg width="18" height="18" viewBox="0 0 18 18" xmlns="http://www.w3.org/2000/svg"><path fill="#F0F3FA" d="M0 0h18v18H0z"/><path d="M5.85 4h5.31s.59.14.78.72l2.16 7.2S15 12 15 13H3s-.12-.84.69-1.14l1.55-7.12c0 .01.2-.74.61-.74Z" fill="url(#akpgcu1od)"/><path d="M6.44 5h3.65s1.05.1 1.4 1.55C11.87 8 13 12 13 12H5l1.44-7Z" fill="#F0F3FA"/><path d="M8.5 6.59c-.37.45-.89.55-1.14.89.76 1.1.07 1.76.45.56L7.53 8l-.23-.2-.15.02c-.51.53-1.06.53.03 2.26h1.1c.95 0 1.7 1.21 2 2.1.22-.2.25-.2.58-.24-.05.55.07.22-.26.32.01.01.04.01.06.04l.42.24c.76.24 1.09.64 1.8.84l-.35-.35c-.41-.14-.4-.1-.64-.42l-.9-.3-.08-.92-.25-1.95c.48-.48.76-.22.9-.75.11-.43-.08-1.09-.01-1.56-.37-.35-.73.35-1.1-.16-.39.23-.17.91-.17 1.5.03.45.2 1.93-.28 1.55-1.06-.73-.86-.46-.8-2.3.04-.79-.1-.93.48-1.2-.03-.38-.05-.35-.18-.65l.32-.28c-.1-.9-.98.56-1.33 1Z" fill="#030303"/><path d="m7.08 9.5-.43-.02.08.67c1.13 1.06.17.41 1.68 1.62.28.22.3.38.59.57.49.02.36 0 1.08.04l.47-.1c-.19-.12-.04 0-.14-.18-.16-.5-.9-1.52-1.24-2.04l-.78-.07c-.13-.66.02-.33-.35-.73-.28-.3-.1-.25-.54-.4.16.94.56.04.7 1.18l-1.02.02-.1-.56Z" fill="#FDFDFC"/><path d="M6.73 11.51c-.6.27-.24.3-.6.7-.77.84-.47.84-.26 1.28.27-1.14.53-1.44 1.25-1.96.64.16.5.25.9.62.45.42.65.19.7.87-.78.1-.97-.22-1.52.98l.25-.2c.31-.3.46-.51 1.04-.5.5.02.91.35 1.23.54l-.43-.57c.63-.14.34.02.96.03l.06-.01c.02-.02.05-.02.07-.03-.28-.54-1.33-.1-1.33-.94-.3-.17-.34-.32-.63-.55-1.5-1.2-.54-.56-1.67-1.62-.25 0-.18-.06-.18.17.21.53.2.62.16 1.2Z" fill="#15131D"/><path d="M6.57 10.32c-.02-.23-.07-.17.18-.17l-.08-.67.43.02c.02.02.05.03.05.05l.05.05c.46.4.1.22.66.34-.25-.38-.26-.57-.78-.57.07-.28.07-.3.18-.47l-.48-.08c.27-.22-.06-.43-.06-.43.62-.2 1.1-.15.86-.24.13.21-.05.18.48.08l-.61-.92-.48-.01a4.91 4.91 0 0 0-.75 1.34c-.07.43.1 1.35.35 1.68Z" fill="#727272"/><path d="M10.35 13.27c.08-.1-.32-.25.33-.13.41.08.2.13.25.16.63.35.31.16.58-.03-.17-.41.36-.32-.48-.36-.19-.53-.07-.22-.02-.34l-.41-.23c-.03-.05-.78 0-.87 0-.2 0 .05.03-.67 0-.02.21-.09.36-.12.46l-.08.32 1.2-.1.05.05.14.12c.03-.01.08.05.1.08Z" fill="#757575"/><path d="M9.12 5.5s-.15.39-.2.47c-.08.14-.18.2-.23.27-.23.28-.07.01-.22.35-.31.15.1.68.12 1.53l.58-1.7c.13-.34 0-.52.2-.69.18-.34.33-.43.63-.41-.23-.3-.07-.22-.68-.32-.05.5-.07.3-.2.5Z" fill="#7D7D7E"/><path d="m10.68 6.6-.28.37c.1.46.11.7.23 1.1l.38-.55c.07-.36-.03-.17.28-.35l.25-.1c-.07-.44-.12-.37-.3-.77-.02-.03-.13-.33-.15-.35-.31-.36.28-.14-.43-.2l.27.7c-.1.18.34.17-.25.15Z" fill="#ADADAE"/><path d="M9.77 5.6c0 .02-.02.38 0 .48.08.44.28.08.08.47l.83.05c.6 0 .15.03.3-.13l-.27-.7c-.6.17-.63-.23-.7-.47l-.3-.01.06.31Z" fill="#030303"/><path d="M9.45 12.16c.45.39.17.2.26 0-.2-.42-.36-1.03-.6-1.54l-1.23-.03c.3.3.57.3.9.64.46.49.14.46.67.93Z" fill="#2C2C2C"/><path d="M9.95 10.12c.33.15-.41.16.39.11.24-.27.06-.12.3-.32l-.18-1.35c-1.01-.07-.27-.07-.5.16.11.5.23 1 0 1.4Z" fill="#898A8A"/><path d="M6.75 12.65c.08.23.05.11.08.4-.24.28-.33.3-.51.55l.73-.04c.05-.54-.03-1.02-.51-1.32l.21.41Z" fill="#1C1C1C"/><path d="M8.08 8.2c-.52.11-.35.13-.48-.08-.34.18-.2.07-.37.37.3.19.28.22.8.25l.05-.54Z" fill="#FCFCFC"/><defs><linearGradient id="akpgcu1od" x1="7" y1="7.6" x2="10.62" y2="5.41" gradientUnits="userSpaceOnUse"><stop stop-color="#293982"/><stop offset="1" stop-color="#1A1A26"/></linearGradient></defs></svg>