<!-- by TradingView --><svg width="18" height="18" viewBox="0 0 18 18" xmlns="http://www.w3.org/2000/svg"><path fill="#F0F3FA" d="M0 0h18v18H0z"/><path d="M8.16 7s-.04.77-.66 1.47c-.63.7-.8 1.84.33 2.53 0 0-.54-.54-.54-1.37 0-.83 1-1.42.87-2.63Z" fill="#3CB14E"/><path d="M8.8 6.33s1 .7 1 1.58c0 .88-.87 1.32-.87 2.09 0 .77.34 1 .34 1S7.8 10.83 7.8 9.45c0-1.38 1.07-1.33 1-3.12Z" fill="#3CB14E"/><path d="M7.8 9.58v-.13c0-.63.22-.96.46-1.31.28-.41.57-.84.53-1.8 0 0 .45.3.75.77.05.3.1.69.05.93-.03.14-.17.28-.34.45-.33.32-.76.75-.78 1.56 0 0-.43-.15-.67-.47Z" fill="#A7CE38"/><path d="M10.1 8s.41.32.41.77c0 .46-.5.6-.5 1.11 0 .51.03.73.03.73s-.7-.25-.7-.86c.02-.59.82-.82.75-1.75Z" fill="#3CB14E"/><path d="M10.04 10.6s-.7-.24-.7-.85c0-.25.16-.44.32-.64.23-.28.47-.58.43-1.11 0 0 .19.14.31.38 0 .18-.05.4-.15.55l-.07.1c-.25.34-.63.88-.14 1.58ZM10.51 11.23s-.5.67-1.62.67c-1.11 0-1.72-.6-1.89-.9 0 0 1.62 1.23 3.51.23Z" fill="#A7CE38"/><path d="m8.08 11.5.05.3c.22.06.48.1.76.1 1.11 0 1.62-.67 1.62-.67-.93.5-1.8.44-2.43.27Z" fill="#3CB14E"/><path d="M9.16 4.09A.2.2 0 0 0 8.99 4a.2.2 0 0 0-.17.1l-5.78 8.56a.22.22 0 0 0-.02.22c.04.08.1.12.19.12h11.58a.2.2 0 0 0 .19-.12.22.22 0 0 0-.02-.22l-1.24-1.57a.2.2 0 0 0-.17-.09h-2.31a.24.24 0 0 0-.24.25c0 .16.13.25.24.25h2.1l.83 1H3.8L9 4.8 11.9 9h.63L9.16 4.09Z" fill="url(#af2mtp2dy)"/><defs><linearGradient id="af2mtp2dy" x1="2.54" y1="12.53" x2="14.97" y2="12.12" gradientUnits="userSpaceOnUse"><stop stop-color="#233A71"/><stop offset="1" stop-color="#0558A5"/></linearGradient></defs></svg>