<!-- by TradingView --><svg width="18" height="18" viewBox="0 0 18 18" xmlns="http://www.w3.org/2000/svg"><path fill="#F0F3FA" d="M0 0h18v18H0z"/><path d="M6 6C4.2 6 3 7.36 3 9c0 2.49 2.25 3 3 3 .54 0 2-.27 2-.97 0-.2-.22-.53-.44-.54-.27 0-.76.54-1.56.54-1.07 0-2-.74-2-2.03 0-1.29.76-2 2.03-2 1.28 0 2.4.97 2.4 2.02C8.43 10.08 9.59 12 12 12c2.6 0 3-2.18 3-3.02C15 7.64 14.09 6 12 6c-.59 0-2 .12-2 .98 0 .18.16.56.35.57.59.01.36-.55 1.65-.55 1.14 0 2 .76 2 1.98C14 10 13.5 11 12 11c-1.49 0-2.43-.97-2.43-1.92C9.57 7.98 8.47 6 6 6Z" fill="#01C4B3"/><path d="M6.47 8.5h5.06c.27 0 .47.23.47.5 0 .28-.22.5-.47.5H6.47C6.2 9.5 6 9.27 6 9c0-.28.2-.5.47-.5Z" fill="#01C4B3"/></svg>