<!-- by TradingView --><svg width="18" height="18" viewBox="0 0 18 18" xmlns="http://www.w3.org/2000/svg"><path fill="#F0F3FA" d="M0 0h18v18H0z"/><path d="M3 11V7h2v.5H3.5v1.32H5v.5H3.5v1.18H5v.5H3ZM6 11V7h1.41c.33 0 .6.05.8.16.22.1.37.25.48.44.1.18.15.4.15.63 0 .23-.05.44-.15.62-.1.19-.26.33-.47.43-.2.1-.47.16-.8.16H6.28V9H7.4c.22 0 .4-.03.54-.1a.6.6 0 0 0 .3-.26c.06-.12.09-.25.09-.41a.9.9 0 0 0-.1-.42.63.63 0 0 0-.3-.28c-.13-.07-.32-.1-.54-.1h-.9V11H6Zm1.97-1.8L9 11h-.59L7.4 9.2h.57ZM9.5 11V7h2.3v.43H10v1.35h1.63v.43H10V11h-.5ZM15 8.27h-.43c-.1-.49-.5-.77-1-.77-.83 0-1.07.8-1.07 1.5s.34 1.5 1.07 1.5c.5 0 .9-.28 1-.77H15A1.45 1.45 0 0 1 13.57 11C12.49 11 12 9.95 12 9s.5-2 1.57-2c.75 0 1.31.55 1.43 1.27Z"/></svg>