<!-- by TradingView --><svg width="18" height="18" viewBox="0 0 18 18" xmlns="http://www.w3.org/2000/svg"><path fill="#F0F3FA" d="M0 0h18v18H0z"/><path d="M12 5a5 5 0 0 1 1.8 5.42c-.1.06-2.6 1.58-3.63 1.58-.47 0-.78-.2-1.12-.43-.4-.27-.85-.57-1.66-.57-1.48 0-2.68.55-2.68.56A5 5 0 0 1 12 5l-.76.39C9.8 6.12 7 7.54 7 8.49c0 .5.58.75.58.75h-.31L6.55 9 6 9.3l.82.4h.25L8 10l.32-.3-.27-.1S8 9.58 8 9.5c0-.05.02-.12.1-.2l.34-.34C9.4 8.03 11.94 5.54 12 5Zm1.7 5.69h.01A5 5 0 0 1 5 12s1.34-.38 2.33-.38c.47 0 .81.2 1.17.4.42.23.86.48 1.56.48 1.32 0 3.63-1.8 3.65-1.81Z" fill="#0778BE"/></svg>