<!-- by TradingView --><svg width="18" height="18" viewBox="0 0 18 18" xmlns="http://www.w3.org/2000/svg"><path fill="#F0F3FA" d="M0 0h18v18H0z"/><path d="m4 6.12 1.5.83v2.26l1.5.77V7.94l1.52.72V14L7 13.28V10.9l-1.5-.77v2.16L4 11.46V6.12Z" fill="#C76C7D"/><path d="m9.51 8.53 2.95-1.62c.85-.47 1.54 0 1.54 1.06v2.26c0 .71-.47 1.56-1.04 1.87L9.5 14V8.53Zm2.68-.24L11 9.01v2.87l1.51-.9c.06-.03.11-.12.11-.19V8.58c0-.29-.2-.42-.43-.29Z" fill="#A60146"/><path d="M4 5.72 9.17 8l3.43-1.57s.66-.28 1.4-.14l-1.14-.53s-.18-.05-.44-.05c-.24 0-.56.04-.9.18l-1.92.82-.8-.28 1.87-.83s.6-.34 1.33-.17l-1.17-.51s-.16-.06-.43-.06c-.21 0-.49.03-.81.16-.73.3-2 .87-2 .87l-.79-.32 2-.9s.49-.23 1.2-.1l-1.04-.5S8.76 4 8.4 4c-.21 0-.48.03-.81.1C4.6 5.44 4 5.73 4 5.73Z" fill="#C9CED2"/></svg>