<!-- by TradingView --><svg width="18" height="18" viewBox="0 0 18 18" xmlns="http://www.w3.org/2000/svg"><path fill="#F0F3FA" d="M0 0h18v18H0z"/><path d="M9 3.5A5.4 5.4 0 0 0 3.5 9 5.4 5.4 0 0 0 9 14.5 5.4 5.4 0 0 0 14.5 9 5.4 5.4 0 0 0 9 3.5ZM3 9a6 6 0 1 1 12 0A6 6 0 0 1 3 9Z" fill="#5F5F5F"/><path d="M5.02 9.41 5 8.95c0-1.8 1.48-3.34 2.83-3.9.03 0 .04 0 .07-.02.58-.16.6.44.6.44v2.6c0 .38-.12.44-.17.53 0 0-2.4 1.4-2.82 1.4-.41.01-.49-.59-.49-.59Z" fill="#DA2B28"/><path d="m12.98 9.41.02-.46c0-1.8-1.48-3.34-2.83-3.9-.03 0-.04 0-.07-.02-.58-.16-.6.44-.6.44v2.6c0 .38.12.44.17.53 0 0 2.4 1.4 2.82 1.4.41.01.49-.59.49-.59Z" fill="#159CAD"/><path d="m6.33 11.98.39.32a3.87 3.87 0 0 0 5-.47l.06-.06c.5-.6-.02-1-.02-1L9.4 9.14c-.35-.23-.47-.13-.57-.13 0 0-2.49 1.47-2.76 1.99-.25.52.26.97.26.97Z" fill="#58585A"/><path fill="#F0F3FA" d="M6 7h1v1H6zM11 7h1v1h-1zM8.5 11h1v1h-1v-1Z"/></svg>