<!-- by TradingView --><svg width="18" height="18" viewBox="0 0 18 18" xmlns="http://www.w3.org/2000/svg"><path fill="#023A55" d="M0 0h18v18H0z"/><path d="M12 11.66V9.19h-.56L11 8.63s1-1.1 1-1.94c0-.83-1.25-3.05-3-3.69-1.75.64-3 2.86-3 3.69 0 .84 1 1.93 1 1.93l-.44.57H6v2.47l.5.1V9.76h.25l.75-1.13S6.56 7.3 6.56 6.7c0-.84.9-2.49 2.44-3.13 1.53.64 2.5 2.3 2.5 3.13 0 .6-1 1.93-1 1.93l.75 1.13h.25V12l.5-.34Z" fill="#F0F3FA"/><path d="M9.34 11v1h-.79v-1H5v2h1v1h1v1h4v-1h1v-1h.9v-2H9.34Z" fill="#F0F3FA"/></svg>