<!-- by TradingView --><svg width="18" height="18" viewBox="0 0 18 18" xmlns="http://www.w3.org/2000/svg"><path fill="#F0F3FA" d="M0 0h18v18H0z"/><path d="M14 11v2.04c0 .53-.4.96-.88.96H4.88c-.48 0-.88-.43-.88-.96V9.67s.35 1.36 2.19 1.66v.34l.31-.34.16.67.4-.55.12.22.1-.34s1.41-.25 2.36-1.31C10.58 8.96 10.95 8 12.12 8c1.18 0 1.57 1.22 1.57 1.67 0 .45-.6 1.33-1.48 1.33H9.78c-.78 0-.78.5-.78.5s.9-.32 1.47.2c.59.5 1.16.63 1.74.63.58 0 1.45.06 1.79-1.33Z" fill="#98C740"/><path d="M4.88 4h8.24c.48 0 .88.43.88.96v3.22l-.16.15-.15-.5-.31.17s-.73-1.33-2.2-1.33C9.73 6.67 9.64 9 9.64 9H9.3a3.15 3.15 0 0 0-1.4-1.9C7.15 6.66 7 6 7 6c0 .42-.1 1.11.44 1.79.53.68.93 1.37.93 2.04 0 .68-.78 1.17-1.76 1.17-1 0-1.67-.77-1.67-1.5s.59-1.25 1.16-2.08c.4-.75.4-1.42.4-1.42h-.31c-.02.66-.56 1.06-1.1 1.37-.55.32-1.09.96-1.09.96V4.96c0-.53.4-.96.88-.96Z" fill="#471861"/></svg>