<!-- by TradingView --><svg width="18" height="18" viewBox="0 0 18 18" xmlns="http://www.w3.org/2000/svg"><path fill="#F0F3FA" d="M0 0h18v18H0z"/><path d="M10 9v3.17c0 .19-.04 1.83-1.96 1.83h-1.6S5 14 5 12.4V10h1v2.55c0 .34.17.41.26.45h2.09c.65 0 .65-.68.65-.68V9h1ZM6 7h1v1H6V7Z" fill="#3599DC"/><path d="m14 7.63-2.69-.32-.1.73 2.69.32.1-.73ZM12.73 10.38l-1.64-1.73-.57.47 1.64 1.72.57-.46ZM13.94 5.65 13.6 5 11 6.02l.35.65 2.6-1.02ZM11.94 3.3l-.67-.3L10 5.42l.67.3 1.27-2.42ZM9.67 5.47 8.7 3l-.7.22.96 2.47.7-.22Z" fill="#FCC35F"/></svg>