<!-- by TradingView --><svg width="18" height="18" viewBox="0 0 18 18" xmlns="http://www.w3.org/2000/svg"><path fill="#F0F3FA" d="M0 0h18v18H0z"/><path d="M13.03 4H4.97a.97.97 0 0 0-.97.97v8.06c0 .53.44.97.97.97h.27c-.1-.34-.29-.98-.23-1.3.1-.43.2-.68.2-.68S5 11.63 5 11.3c0-.34.31-.85.31-.85s-.2-.64.56-.92c0 0 .1-.53.75-.53.64 0 .8.25.94.9.14.64.12 1.22.12 1.22s.64.62 1.08.62c.28 0 .56-.15.81-.28.16-.08.3-.15.42-.18 0 0 .71-.86.91-1.42.17-.45.7-.96 1.1-1.13.02-.1.09-.38.35-.37 0 0 .12-.36.38-.36s.5.51.5.51.37.01.43.64c.12.14.24.31.34.54l-.6-.14s.16.75-.55.72c0 0 1.11 2.07 0 3.68l-.26.05h.44c.53 0 .97-.44.97-.97V4.97a.97.97 0 0 0-.97-.97Z" fill="#EE7D1B"/><path d="M12.33 8.71s.02-.2.2-.2c0 0 0-.18.2-.18.18 0 .29.37.29.37s.31-.1.31.3l-1-.29Z" fill="#D63652"/></svg>