<!-- by TradingView --><svg width="18" height="18" viewBox="0 0 18 18" xmlns="http://www.w3.org/2000/svg"><path fill="#F0F3FA" d="M0 0h18v18H0z"/><path d="M12 12.8s-2.23 1.76-3.93-.88c0 .22-.32.4-.36.62 0 2.12.86 2.46 1.58 2.46 1.85 0 2.32-.95 2.71-2.2Z" fill="url(#a4umfbtcy)"/><path d="M7.71 3s3.72 0 3.72 3.06c0 3.22-3.44 3.93-3.44 6.62 0 2.65 2.1 2.23 2.1 2.23S6 15.3 6 11.54s3.05-4.48 3-6.35A3.03 3.03 0 0 0 7.71 3Z" fill="url(#b4umfbtcy)"/><path d="M11.19 4.85c-.28.22-.24.86-2.89 2.5a6.4 6.4 0 0 0-1.9 2c-.24.63-.4 1.26-.4 2.15 0 2.42 1.79 3.48 3.07 3.5.35 0 .72.02 1.05-.08-.65.03-2.12-.38-2.12-2.3 0-2.69 3.43-3.04 3.43-6.73-.04-.37-.1-.7-.24-1.04Z" fill="url(#c4umfbtcy)"/><defs><linearGradient id="a4umfbtcy" x1="12.14" y1="13.15" x2="8" y2="12.89" gradientUnits="userSpaceOnUse"><stop offset=".11" stop-color="#763792"/><stop offset=".83" stop-color="#DC9BDB"/></linearGradient><linearGradient id="b4umfbtcy" x1="8.71" y1="3" x2="8.38" y2="8.69" gradientUnits="userSpaceOnUse"><stop stop-color="#2D3389"/><stop offset=".49" stop-color="#AEA6CB"/><stop offset=".96" stop-color="#9076AE"/></linearGradient><linearGradient id="c4umfbtcy" x1="8.57" y1="5.92" x2="8.74" y2="15" gradientUnits="userSpaceOnUse"><stop offset=".07" stop-color="#4F3F8A"/><stop offset=".29" stop-color="#7D5B98"/><stop offset=".55" stop-color="#7C3A91"/><stop offset=".69" stop-color="#BA51A0"/><stop offset=".78" stop-color="#C555A2"/><stop offset=".96" stop-color="#6F196C"/></linearGradient></defs></svg>