<!-- by TradingView --><svg width="18" height="18" viewBox="0 0 18 18" xmlns="http://www.w3.org/2000/svg"><path fill="#F0F3FA" d="M0 0h18v18H0z"/><path d="M4.51 8.71c0-.13.05-.38.08-.51.02-.14 0-.32.14-.36.1-.02 1.28 0 1.57 0 .23-.01.24-.05.34-.2.06-.1.35-.56.36-.64H3.9c-.15.03-.16.2-.19.34-.27 1.2-.45 2.27-.69 3.44 0 .06-.04.18 0 .22h2.45c.5 0 .43.02.58-.22l.29-.49c.08-.14.1-.14-.1-.14H4.22c.07-.75.15-.6.55-.6H5.9l.15-.84H4.5ZM10.84 9H9.8c-.05.01-.05.09-.06.13-.07.36-.16.53-.22.87-.6 0-1.12.1-1.39-.27a.85.85 0 0 1-.14-.5c0-.52.49-1.11 1.35-1.22L9.6 8c.42 0 .87.1 1.26.13.1-.73.33-.87-.17-1A4.68 4.68 0 0 0 9.56 7c-.35 0-.7.06-1.02.19-.88.35-1.5 1.09-1.54 2.21 0 .74.16 1.03.58 1.29.35.21.79.3 1.25.3.41.02.84-.04 1.21-.14.42-.1.42-.08.5-.46.1-.48.23-.9.3-1.39Z" fill="#1F3D7C"/><path d="m13.73 9-.31-.49-.16-.24-.15-.25-.3-.46c-.34-.56-.29-.56-.9-.56h-.7c.13.25.9 1.4 1.13 1.75.04.06.13.19.15.25-.16.32-1.16 1.74-1.29 2h1.09c.2 0 .23-.12.32-.25.1-.16 1.09-1.67 1.12-1.75Z" fill="#00974D"/><path d="m13.11 8.02.15.25.16.24.3.49.64-.98.32-.5L15 7h-.7c-.5 0-.52-.02-.74.34l-.45.68Z" fill="#1F3D7C"/></svg>