<!-- by TradingView --><svg width="18" height="18" viewBox="0 0 18 18" xmlns="http://www.w3.org/2000/svg"><path fill="#F0F3FA" d="M0 0h18v18H0z"/><path d="M8.6 10.78V3c-.2 0-.87.83-.87 1h.28L8 9.42H7V4.08c-.2.04-1.06.78-1.07.92h.4v3.61C5.73 8.67 5 9.59 5 10h3v1.32L9 12l1-.68V10h3c0-.4-.74-1.34-1.33-1.39V5h.4c.09-.25-.84-.6-1.07-.64v5.06h-1V4h.27c0-.17-.66-1-.87-1v7.78h-.8Z" fill="#00320E"/><path d="M12.5 8a2.5 2.5 0 1 1-2.5 2.5v-.16a2.14 2.14 0 0 0 2.19 2c1.2 0 2.14-.95 2.14-2.15 0-1.16-.85-2.1-1.99-2.19h.16ZM5.5 8A2.5 2.5 0 1 0 8 10.5v-.16a2.14 2.14 0 0 1-2.19 2c-1.2 0-2.14-.95-2.14-2.15 0-1.16.85-2.1 1.99-2.19H5.5Z" fill="#C39428"/><path d="M6.88 10.13a2.75 2.75 0 0 0 0 4.03 3.1 3.1 0 0 0 4.24 0 2.75 2.75 0 0 0 0-4.03l-.14-.13c.44.48.7 1.07.69 1.67 0 .63-.3 1.25-.8 1.73-.51.48-1.2.6-1.87.6-.67 0-1.34-.13-1.84-.6-.5-.49-.82-1.11-.83-1.73 0-.6.27-1.2.71-1.67a.99.99 0 0 0-.16.13Z" fill="#C39428"/></svg>