<!-- by TradingView --><svg width="18" height="18" viewBox="0 0 18 18" xmlns="http://www.w3.org/2000/svg"><path fill="#F0F3FA" d="M0 0h18v18H0z"/><path d="M4.45 7.1C5.42 5.92 6.75 5 7.95 5c.27 0 .53.08.72.24.2.15.34.4.33.7 0 .12-.03.25-.08.37l-.05.13-.12.02a.38.38 0 0 1-.22-.03.38.38 0 0 1-.16-.14.67.67 0 0 1-.08-.16 2.32 2.32 0 0 1-.02-.1L8.26 6a.36.36 0 0 0-.05-.13s-.03-.03-.1-.04c-.89-.06-1.96.61-2.83 1.61-.87 1-1.47 2.19-1.47 3.17 0 .22.03.3.05.34.01.02.04.01.17 0A3.41 3.41 0 0 0 6.4 9.92l-.35.15-.05.03c-.15.07-.33.15-.49.17a.5.5 0 0 1-.27-.03.47.47 0 0 1-.23-.23l-.05-.1.03-.12c.05-.19.18-.31.3-.4.13-.08.28-.14.42-.2a4.85 4.85 0 0 1 1-.19c.21 0 .4.07.52.23a.85.85 0 0 1 .15.71l-.05.17c-.27.85-.87 1.6-1.36 2.34l-.28.36c-.05.05-.1.1-.15.13a.37.37 0 0 1-.2.06.32.32 0 0 1-.25-.14l-.04-.05-.06-.33.03-.08c.14-.38.51-.75.75-1.08l.03-.05.06-.08-.37.28c-.42.32-.9.54-1.47.53-.31 0-.59-.07-.77-.34A1.77 1.77 0 0 1 3 10.64 6 6 0 0 1 4.45 7.1ZM13 5.04a.47.47 0 0 0-.44.03.8.8 0 0 0-.24.26 3.42 3.42 0 0 0-.14.26l-.11.17a3.8 3.8 0 0 1-.35.15l-.65.22-.21.07c-.32.1-.66.22-.97.34-.3.11-.58.24-.77.37L9 7v.15c.02.16.04.37.2.5a.5.5 0 0 0 .24.1l.23.01h.07l.06-.04c.47-.3 1.03-.61 1.57-.71l-.5 1.01-.03.07c-.2.42-.42.85-.62 1.3a7.49 7.49 0 0 0-.76 3c0 .07.01.15.04.23 0 .04.03.1.07.17.04.06.1.12.18.15.05.02.13.06.22.06.07 0 .15-.02.21-.08a.38.38 0 0 0 .1-.16l.05-.24v-.02c.03-.19.08-.48.22-.9.21-.66.56-1.66.95-2.63.4-.96.82-1.87 1.2-2.4l.08-.04a10.3 10.3 0 0 1 .88-.24l.16-.04.52-.12c.2-.05.4-.1.52-.17l.14-.07v-.16a.57.57 0 0 0-.12-.37.47.47 0 0 0-.31-.16c-.3-.04-.62.04-.9.13l-.22.07-.16.05a.42.42 0 0 0-.06-.18.75.75 0 0 0-.15-.19l-.04-.03-.04-.01Z" fill="#C08D31"/></svg>