<!-- by TradingView --><svg width="18" height="18" viewBox="0 0 18 18" xmlns="http://www.w3.org/2000/svg"><path fill="#F0F3FA" d="M0 0h18v18H0z"/><path d="M5.76 10c-.1-.45-.36.3-.34-.41v-.63c0-.57.38-.42.92-.47.77-.07.4.04.45.62 0 .12 0 1.1-.03 1.2l-1.24.07-.04-.06.28-.32Zm6.2-.96-.24.22c-.07-.03-.47-.19-.51-.18l-.08.2-.94-.26-.05.44-.1-.72h-.12c-.01.11-.07.58-.05.65l.05.12.16.16-.29-.09.08-.72c-.5-.2-1.02-.41-1.5-.64l.1.27-1.1-.03-.4.01-.06-.3-.92.27h-.45l-.3-.22-.27.44h.34l-.11 1.65c0 .13.11.24.25.16l.47.13.15.1 2.5-.32c-.12-.02-.3-.04-.4-.08l.08-1.51.33.1.04.3h.06v-.3l.3.13-.22.36.1.06.31-.39.13.3.07-.01.06-.24c0 .05 0 .28.03.3.05.02.18 0 .23.03l-.12.24c.08.72.3.76.38.81.15.09.15-.02.37.04l.18-.4 1.15.2.13.2.34-.3-1.66-.67.23.07c0-.03.75.71 1.27.08-.06.41.45.73.61.41l-.02-.38-.65-.26.05-.13.47.11c0-.08-.02-.46-.05-.5l.18.06c-.05-.07-.19-.79-.22-.92L12.1 9l.12.04h-.25Z" fill="#B4A27C"/><path d="m7.38 8.46 1.1.03-.06-.17c.5.2 1 .43 1.4.58l-.07.65.18.75.07-.01.19-.65-.18-.08.18-.03-.32-.14c-.02-.07.04-.53.06-.64h.11l.1.71.06-.43.94.25.07-.2c.05 0 .44.16.52.19l.24-.22-.07-.31-1.7-.15-.04-.83-.3-.76H8.47c0 .15.1.42.13.57l-.21-.01v.57l-.1.29-.92.04Z" fill="#E3DCCB"/><path d="m11.78 10.5.1-.11v.12l1.25.22-.02-.1c.02-.06.36-.47.36-.55l-.33.02-.01-.2-.29-.02-.03-.31.26-.03v-.08l-.28-.03-.46-1.35c.03.14.18.85.22.92l-.18-.06c.03.05.04.43.05.5l-.47-.1-.05.12.65.26V10l-.09-.12-.08.17c-.04-.06-.28-.1-.36-.12l-.06-.24-.38.12-.17-.22-.06.02-.02.3h-.05l-.02-.33-.05.16-.06.01-.09-.24c-.04.01-.29-.04-.29-.04l-.03-.05-.05.2-.1-.24h-.09l-.04.17-.09-.22-.11.03.06.58.06-.07 1.61.33-.21.3Z" fill="#EBE4D3"/><path d="M5.8 10.22c0-.68-.11-.64.34-.62v.58l-.04.02c-.17.09-.1.04-.3.02Zm-.02-1.53c.1-.02.3-.03.38 0 0 .14-.01.44.02.55-.03.02-.14.1-.16.1l-.23-.04v-.6Zm-.13 1.28-.17.35.04.06 1.24-.07c.03-.1.03-1.08.03-1.2-.04-.58.32-.69-.45-.62-.54.05-.93-.11-.92.46v.64c-.02.7.15.13.23.38Z" fill="#FAFAF1"/><path d="m8.62 7.61-.32.19c0 .09.01.13.1.25l1.47-.16v-.1l-1.06-.1.06-.37.12.32h.05l.12-.35.15.3.18-.3.07.26c.38-.4-.3-.4-.34-.38-.3.14-.56-.19-.6.44Z" fill="#B39B73"/><path d="M5.78 8.7v.6l.23.04c.03 0 .14-.08.17-.1-.04-.1-.02-.41-.03-.56-.08-.02-.27 0-.37.01Z" fill="#B89A74"/><path d="M5.8 10.22c.2.02.12.07.3-.02l.05-.02-.01-.58c-.45-.02-.33-.06-.35.62Z" fill="#AC9364"/><path d="m9.37 9.58.13.12.1.92a2.3 2.3 0 0 0-.71.3c-.12.09-.55.32-.56.49.12-.01.09-.07.27-.08.1 0 .21 0 .32-.02l.15.13-.08.09c-.3.1-.56.2-.94.14-.12-.16-.45-.92-.6-.95-.13.24.14.48.18.7-.2.26-.53.29-.76.19-.05-.02 0-.02-.08-.01v.26l.05.1c.15.02.3.02.43-.04.09-.04.25-.15.33-.16.05 0 .1 0 .16-.02.03.26.41.27.64.26.46-.02.57-.25 1.02-.4.26-.1.41-.04.4-.35-.18-.02-.32.02-.48.03-.09 0-.36-.07-.41-.1.17-.21.44-.13.69-.2.13-.04.18-.19.18-.36 0-.18-.04-.38-.07-.5-.1-.44.01-.33.05-.56l.02-.15c-.07-.07-.14-.02-.22-.07-.06-.05-.05-.22-.01-.23L9.54 9c-.17.07-.18.33-.17.58ZM5.7 11.26c0 .14-.02.08.05.2.03.06.09.14.08.2a.86.86 0 0 1-.24.12c-.23.08-.2-.03-.31-.03v.18l.04.04c.13.02.22 0 .32-.04.08-.04.2-.12.26-.13.15.14.08.2.37.2.25 0 .3-.08.43-.13.04-.1.1-.18.08-.33-.06-.04-.13-.16-.28-.15l-.02.15c.06.05.15.1.16.18-.11.1-.3.1-.5.09a1.8 1.8 0 0 1-.3-.46c-.09-.07-.05-.13-.14-.09Z" fill="#0C442B"/><path d="m4.7 11.6.1-.1c.13-.01.23.03.28.12-.02.05-.03.07-.1.1a.22.22 0 0 1-.12.03l-.16-.03v-.11Zm-.14.37c.61.22 1.12-.77.24-.72-.13.22-.38.45-.24.72Z" fill="#0C442B"/><path d="m9.74 10.3.02.17c0 .1.06.38.08.5.09.55.02.3.05.59.14-.02.03-.77.03-.8-.03-.06-.07-.38-.08-.49v-.04c-.06-.02-.08-.01-.1.07Z" fill="#13432C"/><path d="M11.56 11.18c.03-.1.31-.23.4-.26.15-.08.44 0 .5.1-.08.15-.74.17-.9.16Zm-2.1.2c.05-.02.12-.04.12-.13-.07 0-.1.04-.14.09-.05.02-.08.07-.13.08a.64.64 0 0 0-.18.2c-.03.06-.1.14-.07.24.02.1.1.14.2.14s.4-.16.46-.22c.24-.1.32-.25.87-.37.07-.02.14 0 .2-.02.11 0 .08-.04.16-.04.17.04.16 0 .14.13 0 .1-.13.17-.13.31.1-.03.05-.05.2-.23l.12-.15c.09-.06.54 0 .69-.03.08-.01.78.07.97 0 .11-.06.1-.14.17-.22.23 0 .27.1.45.09a.44.44 0 0 0 .04-.22c-.02-.16-.1-.34-.23-.36-.09-.01-.19.05-.3.21-.04.04-.05.09-.08.11-.01.11-.03.16-.14.17a.89.89 0 0 1-.25.02l.07-.18c.02-.21-.33-.44-.67-.28l-.52.3c-.1.06-.23.2-.32.04-.05-.07 0-.09-.09-.13-.14.06 0 .22-.27.23-.31.03-1.06.38-1.1.47-.11.04-.15.04-.28.06-.07 0-.1-.03-.11-.1.07-.12.06-.11.14-.2Zm3.74-.42c.02-.18.2-.04.21.05l-.21-.05Z" fill="#13432C"/><path d="M3.15 12c-.1-.47-.15-.96-.15-1.47C3 6.93 5.69 4 9 4s6 2.93 6 6.53c0 .5-.05 1-.15 1.47h-1.01c.1-.45.16-.93.16-1.42C14 7.5 11.76 5 9 5s-5 2.5-5 5.58c0 .5.06.97.16 1.42h-1Z" fill="#A09077" fill-opacity=".5"/></svg>