<!-- by TradingView --><svg width="18" height="18" viewBox="0 0 18 18" xmlns="http://www.w3.org/2000/svg"><path fill="#F0F3FA" d="M0 0h18v18H0z"/><path fill-rule="evenodd" d="M13.8 9a4.8 4.8 0 1 0-9.6 0 4.8 4.8 0 0 0 9.6 0Zm.2 0A5 5 0 1 0 4 9a5 5 0 0 0 10 0Z" fill="url(#abymr3esb)"/><path d="M9.16 7.13a9.6 9.6 0 0 1-4.27-.94l.16-.16a8.76 8.76 0 0 0 7.91 0l.16.16a9.23 9.23 0 0 1-3.96.94ZM9.16 10.88a9.6 9.6 0 0 0-4.27.93l.16.16a9.15 9.15 0 0 1 4.1-.94c1.41 0 2.58.38 3.77.94l.16-.16a9.06 9.06 0 0 0-3.92-.94ZM14 9.16H4V9h10v.16Z" fill="#2B2B2A"/><path fill-rule="evenodd" d="M7 9.5a1.5 1.5 0 1 0-3 0 1.5 1.5 0 0 0 3 0Zm-1.1 0a.4.4 0 1 0-.8 0 .4.4 0 0 0 .8 0Z" fill="#2B2B2A"/><path d="m9.15 5 .68.93.17 5.32-.88.75L8 11.17S7.88 6.4 9.15 5Z" fill="#174F2D"/><path d="M4.78 9c0 2.66 2.35 4.06 4.22 4.84V14c-1.87-.63-4.38-2.19-4.38-5S7.13 4.31 9 4v.16C7.13 4.62 4.78 6.34 4.78 9ZM13.22 9c0 2.66-2.35 4.06-4.22 4.84V14c1.88-.63 4.38-2.19 4.38-5S10.88 4.31 9 4v.16c1.88.46 4.22 2.18 4.22 4.84Z" fill="#2B2B2A"/><path d="M9 4.16C7.37 5.15 6.5 6.92 6.5 9c0 2.09.85 3.86 2.5 4.84V14a5.59 5.59 0 0 1-2.66-5c0-2.14.94-3.95 2.66-5v.16ZM9 4.16c1.63.99 2.5 2.76 2.5 4.84 0 2.09-.85 3.86-2.5 4.84V14a5.59 5.59 0 0 0 2.66-5c0-2.14-.94-3.95-2.66-5v.16Z" fill="#2B2B2A"/><path fill="#D49E28" d="M10 11h2v1h-2zM10 11l2-4h.5l.5 1.54h-.5l-.25-.92L10.49 11H10Z"/><defs><linearGradient id="abymr3esb" x1="9" y1="4" x2="9" y2="14"><stop offset="1" stop-color="#181B1E"/></linearGradient></defs></svg>