<!-- by TradingView --><svg width="18" height="18" viewBox="0 0 18 18" xmlns="http://www.w3.org/2000/svg"><path fill="#F0F3FA" d="M0 0h18v18H0z"/><path d="M8.71 4a5.02 5.02 0 0 0 .32 10 5.02 5.02 0 0 0 1.88-9.65v.58a4.48 4.48 0 0 1-1.88 8.54 4.49 4.49 0 0 1-.32-8.94V4Z" fill="#39B54A"/><path d="M11 12.13c-.58.55-1.3.87-2.08.87-.71 0-1.37-.26-1.91-.71L7 11.98s2.45-1.24 4-3.45v3.6Z" fill="url(#aw0cldwit)"/><path d="M9.01 6s1.2.98 1.99.36V7.5S10.5 9 9 10l.01-4Z" fill="url(#bw0cldwit)"/><path d="M9 5.43s.5.69 1 .55V3.56L9 3v2.43Z" fill="url(#cw0cldwit)"/><defs><linearGradient id="aw0cldwit" x1="7.82" y1="9.29" x2="9.4" y2="11.87" gradientUnits="userSpaceOnUse"><stop stop-color="#D9D9D9" stop-opacity="0"/><stop offset="1" stop-color="#0060AE"/></linearGradient><linearGradient id="bw0cldwit" x1="10" y1="5.47" x2="10" y2="8.13" gradientUnits="userSpaceOnUse"><stop stop-color="#01ABE8" stop-opacity="0"/><stop offset="1" stop-color="#00AAE7"/></linearGradient><linearGradient id="cw0cldwit" x1="9.5" y1="3" x2="9.5" y2="6" gradientUnits="userSpaceOnUse"><stop stop-color="#83D2F6" stop-opacity="0"/><stop offset="1" stop-color="#82D1F5"/></linearGradient></defs></svg>