<!-- by TradingView --><svg width="18" height="18" viewBox="0 0 18 18" xmlns="http://www.w3.org/2000/svg"><path fill="#F0F3FA" d="M0 0h18v18H0z"/><path d="M9 14.72A5.72 5.72 0 1 0 9 3.28a5.72 5.72 0 0 0 0 11.44ZM15 9A6 6 0 1 1 3 9a6 6 0 0 1 12 0Z" fill="#4C8C51"/><path d="M9 5.25a3.75 3.75 0 1 1 0 7.5 3.75 3.75 0 0 1 0-7.5Z" fill="#A8E0F9"/><path fill-rule="evenodd" d="M12.56 9a3.56 3.56 0 1 0-7.12 0 3.56 3.56 0 0 0 7.12 0Zm.19 0a3.75 3.75 0 1 0-7.5 0 3.75 3.75 0 0 0 7.5 0Z" fill="#2B2B2A"/><path d="M14.06 9c0-1.83-.97-3.43-2.44-4.34l.1-.16A5.3 5.3 0 0 1 14.26 9h-.19ZM6.38 4.66A5.12 5.12 0 0 0 3.94 9h-.19c0-1.9 1-3.55 2.52-4.5l.1.16Z" fill="#E9C27F"/><path d="M13.68 9c0-2.2-1.5-4.06-3.55-4.7l.05-.17A5.14 5.14 0 0 1 13.88 9h-.2ZM7.88 4.3A4.95 4.95 0 0 0 4.31 9h-.2a5.14 5.14 0 0 1 3.7-4.88l.05.19Z" fill="#E9C27F"/><path d="M13.32 9c0-1.7-1.2-3.17-2.45-3.96l.1-.17C12.24 5.7 13.5 7.25 13.5 9h-.18ZM7.13 5.04C5.88 5.84 4.67 7.31 4.67 9H4.5c0-1.76 1.25-3.3 2.54-4.13l.08.17Z" fill="#E9C27F"/><path d="M9 13.97s.67-.85 1.52-.85l-.4.7 1.13.22s-.37.23-1.03.2A3.4 3.4 0 0 1 9 13.98Z" fill="url(#aufvrjj2h)"/><path d="M10.5 13.45s.52-.9 1.36-1.07l-.3.7 1.19-.03s-.3.28-.96.4a4 4 0 0 1-1.29 0Z" fill="url(#bufvrjj2h)"/><path d="M12 12.75s.07-.43.28-.85c.13-.25.32-.5.57-.65l.03.8 1-.35s-.18.46-.73.77c-.28.15-.63.2-1.15.28Z" fill="url(#cufvrjj2h)"/><path d="M13.23 11.63s-.1-.48-.1-1c0-.3.03-.63.15-.88l.3.84.67-.56s-.02.4-.28.91c-.13.27-.42.4-.74.69Z" fill="url(#dufvrjj2h)"/><path d="M13.77 10.13s-.14-.34-.22-.74c-.05-.23-.07-.5-.03-.72l.34.57.38-.62s.05.32-.05.78c-.06.24-.24.43-.42.72Z" fill="url(#eufvrjj2h)"/><path d="M13.16 7.13s1.03.45.62 1.5c0 0-.84-.45-.62-1.5Z" fill="url(#fufvrjj2h)"/><path d="M9 13.97s-.67-.85-1.52-.85l.4.7-1.13.22a2 2 0 0 0 1.03.2A3.4 3.4 0 0 0 9 13.98Z" fill="url(#gufvrjj2h)"/><path d="M7.5 13.45s-.52-.9-1.36-1.07l.3.7-1.19-.03s.3.28.96.4a4 4 0 0 0 1.29 0Z" fill="url(#hufvrjj2h)"/><path d="M6 12.75s-.05-.43-.23-.85c-.1-.25-.25-.5-.45-.65l-.03.8-.79-.35s.14.46.58.77c.22.15.5.2.92.28Z" fill="url(#iufvrjj2h)"/><path d="M4.77 11.63s.1-.48.1-1c0-.3-.03-.63-.15-.88l-.3.84-.67-.56s.02.4.28.91c.13.27.42.4.74.69Z" fill="url(#jufvrjj2h)"/><path d="M4.23 10.13s.14-.34.22-.74c.05-.23.07-.5.03-.72l-.34.57-.38-.62s-.05.32.05.78c.06.24.24.43.42.72Z" fill="url(#kufvrjj2h)"/><path d="M4.84 7.13s-1.03.45-.62 1.5c0 0 .84-.45.62-1.5Z" fill="url(#lufvrjj2h)"/><path d="M9 7a1 1 0 1 1 0 2 1 1 0 0 1 0-2ZM10 9a1 1 0 1 1 0 2 1 1 0 0 1 0-2Z" fill="#F0F3FA"/><path d="m8.63 11.59-.23.04c-.18-1-.2-2 0-3l.22.04c-.2.97-.17 1.94 0 2.92Z" fill="#974923"/><path d="M7.5 8.05S7.5 9 9 9s1.34-.52 1.34-.52l-.71-.05-.36-.93s-.95.95-1.77.55ZM8.62 11.63l-.2-.01c.05-.76.58-1.3 1.26-1.5l.07.15c-.6.18-1.08.67-1.13 1.36Z" fill="#974923"/><path d="M9.09 10s-.05.44.91.3c0 0-.48.27-.3.7 0 0-1-.25-.61-1Z" fill="#974923"/><defs><linearGradient id="aufvrjj2h" x1="9" y1="13.88" x2="11.25" y2="13.88" gradientUnits="userSpaceOnUse"><stop stop-color="#D17630"/><stop offset=".46" stop-color="#F7A51B"/><stop offset="1" stop-color="#D37C36"/></linearGradient><linearGradient id="bufvrjj2h" x1="10.5" y1="13.13" x2="12.75" y2="13.13" gradientUnits="userSpaceOnUse"><stop stop-color="#D17630"/><stop offset=".46" stop-color="#F7A51B"/><stop offset="1" stop-color="#D37C36"/></linearGradient><linearGradient id="cufvrjj2h" x1="12" y1="12.25" x2="13.88" y2="12.25" gradientUnits="userSpaceOnUse"><stop stop-color="#D17630"/><stop offset=".46" stop-color="#F7A51B"/><stop offset="1" stop-color="#D37C36"/></linearGradient><linearGradient id="dufvrjj2h" x1="14.06" y1="9.75" x2="14.06" y2="11.63" gradientUnits="userSpaceOnUse"><stop stop-color="#D17630"/><stop offset=".46" stop-color="#F7A51B"/><stop offset="1" stop-color="#D37C36"/></linearGradient><linearGradient id="eufvrjj2h" x1="14.13" y1="8.63" x2="14.13" y2="10.13" gradientUnits="userSpaceOnUse"><stop stop-color="#D17630"/><stop offset=".46" stop-color="#F7A51B"/><stop offset="1" stop-color="#D37C36"/></linearGradient><linearGradient id="fufvrjj2h" x1="13.75" y1="7.13" x2="13.75" y2="8.63" gradientUnits="userSpaceOnUse"><stop stop-color="#D17630"/><stop offset=".46" stop-color="#F7A51B"/><stop offset="1" stop-color="#D37C36"/></linearGradient><linearGradient id="gufvrjj2h" x1="6.75" y1="13.88" x2="9" y2="13.88" gradientUnits="userSpaceOnUse"><stop stop-color="#D17630"/><stop offset=".46" stop-color="#F7A51B"/><stop offset="1" stop-color="#D37C36"/></linearGradient><linearGradient id="hufvrjj2h" x1="5.25" y1="13.13" x2="7.5" y2="13.13" gradientUnits="userSpaceOnUse"><stop stop-color="#D17630"/><stop offset=".46" stop-color="#F7A51B"/><stop offset="1" stop-color="#D37C36"/></linearGradient><linearGradient id="iufvrjj2h" x1="4.5" y1="12.25" x2="6" y2="12.25" gradientUnits="userSpaceOnUse"><stop stop-color="#D17630"/><stop offset=".46" stop-color="#F7A51B"/><stop offset="1" stop-color="#D37C36"/></linearGradient><linearGradient id="jufvrjj2h" x1="4.69" y1="9.75" x2="4.69" y2="11.63" gradientUnits="userSpaceOnUse"><stop stop-color="#D17630"/><stop offset=".46" stop-color="#F7A51B"/><stop offset="1" stop-color="#D37C36"/></linearGradient><linearGradient id="kufvrjj2h" x1="4.38" y1="8.63" x2="4.38" y2="10.13" gradientUnits="userSpaceOnUse"><stop stop-color="#D17630"/><stop offset=".46" stop-color="#F7A51B"/><stop offset="1" stop-color="#D37C36"/></linearGradient><linearGradient id="lufvrjj2h" x1="4.75" y1="7.13" x2="4.75" y2="8.63" gradientUnits="userSpaceOnUse"><stop stop-color="#D17630"/><stop offset=".46" stop-color="#F7A51B"/><stop offset="1" stop-color="#D37C36"/></linearGradient></defs></svg>