<!-- by TradingView --><svg width="18" height="18" viewBox="0 0 18 18" xmlns="http://www.w3.org/2000/svg"><path fill="#F0F3FA" d="M0 0h18v18H0z"/><path d="M9 3.1S7.49 2.95 7.02 5c0 0-.35-2.53 1.98-1.9ZM8 6s.5.5.5 1.25c0 .23-.15.48-.25.75 0 0 .75-.33.75-.97C9 6.4 8 6 8 6Z" fill="#CE1C0E"/><path d="M7.36 5.68s.78-.78 1.41-.78c.63 0 1.73.44 1.73 1.7S8.88 8.57 8.04 9.04C7.19 9.52 6 10.21 6 11.12c0 .91.38 1.18.38 1.18s-.3-1.19 0-1.63c.3-.44 1.3-1.18 2.56-1.75 1.26-.57 1.94-1.45 1.94-2.3 0-.85-.38-1.22-.38-1.22s.75.73.75 1.55c0 .82-.18 2.14-2.25 3.85 0 0 .56 0 1.5-.3 0 0 .19.6-1.5 1.2l1.13.1s-.35.51-1.45.99S7.5 14.1 7.5 14.1s.54-.5 1.73-.66c0 0-1.2 1.18.14 1.56 0 0-.36-.23-.37-.55 0-.05 0-.1.03-.16.17-.4 1.49-1.1 1.49-1.1l-1.33.01s1-.5 1.3-.94l.76-1.16h-.19s.52-.61.56-1.8c0 0-.19-.12-.56.3 0 0 .94-1.27.94-2.64S10.7 4.2 9.08 4.2c-1.62 0-1.86 1.05-1.72 1.48Z" fill="#EDA700"/></svg>