<!-- by TradingView --><svg width="18" height="18" viewBox="0 0 18 18" xmlns="http://www.w3.org/2000/svg"><path fill="#F0F3FA" d="M0 0h18v18H0z"/><path d="M9 8.5S8 6.75 8 5.56C8 4.34 8.53 4 9 4s1 .47 1 1.5-1 3-1 3Z" fill="url(#am4lldc1t)"/><path d="M9 9.4s-1 1.15-1 2.12C8 12.5 8.46 13 9 13s1-.58 1-1.44S9 9.4 9 9.4Z" fill="url(#bm4lldc1t)"/><path d="M8 8.5s-2.27 0-3.14-.43C4.22 7.72 4 7.31 4 6.94c0-.22.08-.42.19-.6.2-.3.58-.54 1.06-.54.27 0 .55.07.86.23C7.02 6.53 8 8.5 8 8.5Z" fill="url(#cm4lldc1t)"/><path d="M10 8.5s2.27 0 3.14-.43c.64-.35.86-.76.86-1.13 0-.22-.08-.42-.19-.6-.2-.3-.58-.54-1.06-.54-.27 0-.55.07-.86.23C10.98 6.53 10 8.5 10 8.5Z" fill="url(#dm4lldc1t)"/><path d="M8 9.4s-1.8.92-2.8 2.24c0 0-.26.46-.98.46-.68 0-1.22-.36-1.22-1.17C3 9.97 4.4 9.4 5.16 9.4H8Z" fill="url(#em4lldc1t)"/><path d="M10 9.4s1.8.92 2.8 2.24c0 0 .26.46.98.46.68 0 1.22-.36 1.22-1.17 0-.96-1.4-1.53-2.16-1.53H10Z" fill="url(#fm4lldc1t)"/><defs><linearGradient id="am4lldc1t" x1="9" y1="4" x2="9" y2="8.5" gradientUnits="userSpaceOnUse"><stop stop-color="#1BB2EA"/><stop offset=".25" stop-color="#5FC5F3"/><stop offset=".42" stop-color="#5DC4F2"/><stop offset="1" stop-color="#018DD1"/></linearGradient><linearGradient id="bm4lldc1t" x1="9" y1="9.4" x2="9" y2="13" gradientUnits="userSpaceOnUse"><stop stop-color="#006EBB"/><stop offset=".4" stop-color="#024B9A"/><stop offset="1" stop-color="#05489A"/></linearGradient><linearGradient id="cm4lldc1t" x1="5.47" y1="6.07" x2="6.01" y2="8.5" gradientUnits="userSpaceOnUse"><stop offset=".09" stop-color="#5EC6EE"/><stop offset=".56" stop-color="#06ABE8"/><stop offset=".95" stop-color="#007EB9"/></linearGradient><linearGradient id="dm4lldc1t" x1="11.6" y1="5.8" x2="12.15" y2="8.5" gradientUnits="userSpaceOnUse"><stop offset=".19" stop-color="#039BDB"/><stop offset=".6" stop-color="#007BC7"/><stop offset="1" stop-color="#0158A7"/></linearGradient><linearGradient id="em4lldc1t" x1="5.35" y1="9.4" x2="5.51" y2="12.1" gradientUnits="userSpaceOnUse"><stop stop-color="#0290D8"/><stop offset=".53" stop-color="#0BABE3"/><stop offset="1" stop-color="#0184CA"/></linearGradient><linearGradient id="fm4lldc1t" x1="12.35" y1="9.25" x2="12.81" y2="12.25" gradientUnits="userSpaceOnUse"><stop stop-color="#0085CB"/><stop offset=".39" stop-color="#0295DC"/><stop offset="1" stop-color="#0187CD"/></linearGradient></defs></svg>