<!-- by TradingView --><svg width="18" height="18" viewBox="0 0 18 18" xmlns="http://www.w3.org/2000/svg"><path fill="#F0F3FA" d="M0 0h18v18H0z"/><path fill-rule="evenodd" d="M10.43 3.34H7.57c-.66 0-1.2.49-1.2 1.07v8.84c0 .58.54 1.06 1.2 1.06h2.86c.66 0 1.2-.48 1.2-1.06V4.4c0-.58-.54-1.07-1.2-1.07Zm0-.34H7.57C6.71 3 6 3.63 6 4.4v8.85c0 .77.7 1.4 1.57 1.4h2.86c.86 0 1.57-.63 1.57-1.4V4.4C12 3.63 11.3 3 10.43 3Z" fill="#2B2B2A"/><path d="M10 10h1v3.43c0 .31-.28.57-.62.57H7v-.67h2.8c.1 0 .2-.08.2-.19V10ZM6 14.66h6V15H6v-.34Z" fill="#2B2B2A"/><path d="m9 12 1 .5-1 .5-1-.5 1-.5ZM8 10l1 .99V12s-.8-.6-.9-1.7L8 10ZM10 10l-1 .99V12s.8-.6.9-1.7l.1-.3ZM8 8l1 .99V10s-.8-.6-.9-1.7L8 8ZM10 8l-1 .99V10s.8-.6.9-1.7L10 8ZM8 6l1 .99V8s-.8-.6-.9-1.7L8 6ZM10 6l-1 .99V8s.8-.6.9-1.7L10 6ZM9 4.5s.36.48.37.99c.02.43-.27.45-.36.51H9c-.09-.06-.38-.08-.36-.51.01-.51.37-.99.37-.99Z" fill="#2B2B2A"/></svg>