<!-- by TradingView --><svg width="18" height="18" viewBox="0 0 18 18" xmlns="http://www.w3.org/2000/svg"><path fill="#F0F3FA" d="M0 0h18v18H0z"/><path d="M6.91 10.5a2.33 2.33 0 0 1-1.16-1.9c.25-.03.91.01 1.62.43.7.42 1.02.5 1.1.47-1.3-1.24-1.1-3.23-.83-4.07 2.21 1.07 2.23 2.98 1.97 3.8.58-1.08 1.89-1.37 2.47-1.38.2 2.42-1.56 2.82-1.95 2.82-.3 0-.54-.06-.62-.1.07.2.22.73.22 1.37 0 .63-.4 1.42-.58 1.73h-.42c.23-.24.7-.92.7-1.73 0-.82-.2-1.25-.28-1.37-.3.46-1.07.62-2.24-.06Z" fill="#007F3D"/><path d="m5.59 8.47.14-.02c.28-.04.99 0 1.72.45.2.12.38.21.52.28a3.75 3.75 0 0 1-.67-1.85c-.08-.78.05-1.5.19-1.95l.06-.17.17.08c1.81.88 2.21 2.31 2.16 3.3.27-.26.58-.46.9-.6.49-.21.98-.3 1.3-.3h.15l.01.14c.11 1.26-.3 2.01-.8 2.45-.5.44-1.08.55-1.3.55-.15 0-.28-.01-.4-.03.08.27.15.68.15 1.14 0 .34-.1.72-.23 1.04-.12.32-.27.6-.37.77l-.05.08h-.88l.25-.27c.21-.21.65-.86.65-1.62a3.66 3.66 0 0 0-.15-1.08c-.19.16-.44.25-.75.26-.42.02-.93-.13-1.53-.48-1-.58-1.25-1.6-1.25-2.04v-.13Zm3.45 2.23a.82.82 0 0 0 .1-.13l.1.16c.08.2.18.6.18 1.2a2.72 2.72 0 0 1-.69 1.74h.41c.2-.31.59-1.1.59-1.73a4.5 4.5 0 0 0-.22-1.37c.03.02.1.04.19.06.11.02.26.04.43.04.39 0 2.16-.4 1.95-2.82-.51 0-1.58.23-2.22 1-.1.12-.18.24-.25.38.04-.12.07-.27.1-.43.1-.92-.17-2.38-1.92-3.3l-.15-.07-.04.16c-.23.86-.35 2.55.68 3.72l.18.2c-.03 0-.12 0-.28-.07a4.9 4.9 0 0 1-.81-.4 2.79 2.79 0 0 0-1.62-.44c0 .41.22 1.36 1.16 1.9 1.05.62 1.77.55 2.13.2Z" fill="#D51921"/><path fill-rule="evenodd" d="m3.4 9 2.8-4.67h.02l.86 1.5.3-.82c.54.03 1.82.53 2.62 2.31l1.76-2.99h.03L14.6 9h-2.04c-.14.56-.76 1.63-2.3 2.17l1.47 2.5H6.27l1.35-2.33A3.68 3.68 0 0 1 5.3 9H3.41Zm2.68 5H6L3 9l3-5h6l3 5-3 5H6.08Z" fill="#D51921"/></svg>