<!-- by TradingView --><svg width="18" height="18" viewBox="0 0 18 18" xmlns="http://www.w3.org/2000/svg"><path fill="#F0F3FA" d="M0 0h18v18H0z"/><path d="M7 13h2v1H7v-1Z" fill="#2B2A29"/><path d="M6.46 7.8v6.9c.02.17.26.3.54.3.3 0 .54-.13.54-.3V7.8H6.46Z" fill="#2B2A29"/><path d="M6 7h2v1H6V7ZM8 7v-.62L9 7l-.22-2.77S8.78 4 8.5 4s-.61.3-.95.3c-.34 0-.22-.84-.22-1 0-.12-.2-.3-.37-.3-.05 0-.28.1-.25.12l-.26.01-.12.18s.34-.1.34 0-.1.98-.28 1C6.2 4.32 5.83 4 5.54 4c-.2 0-.4.29-.4.35L5 7l1-.62V7h2ZM12 3h-1v11h1V3Z" fill="#2B2A29"/><path d="M11.5 10c-.8 0-1.5.43-1.5 1 0 .54.64 1 1.5 1s1.5-.43 1.5-1c0-.54-.64-1-1.5-1ZM10 13s.7.17 1.18.58l.3-.3h.03l.3.3A3.19 3.19 0 0 1 13 13c-1 1.08-1.51 2-1.51 2S11 14.11 10 13Z" fill="#2B2A29"/></svg>