<!-- by TradingView --><svg width="18" height="18" viewBox="0 0 18 18" xmlns="http://www.w3.org/2000/svg"><path fill="#F0F3FA" d="M0 0h18v18H0z"/><path d="M11 7c.05-.1-.13-2.29 1.98-3 0 0 .35 2.37-1.98 3Z" fill="url(#al13qf4kh)"/><path d="M10 7c-.1-.05-2.28.14-3-1.98.01 0 2.36-.36 3 1.98Z" fill="url(#bl13qf4kh)"/><path d="M11 8c.1.05 2.28-.14 3 1.98-.01 0-2.36.36-3-1.98Z" fill="url(#cl13qf4kh)"/><path d="M10.68 6c-.03-.06-1.19-.8-.42-2 0-.01 1.34.73.42 2Z" fill="url(#dl13qf4kh)"/><path d="M12 7.65c.06-.03.82-1.17 2-.36 0 0-.76 1.32-2 .36Z" fill="url(#el13qf4kh)"/><path fill-rule="evenodd" d="M11 10.5a3.5 3.5 0 1 0-7 0 3.5 3.5 0 0 0 7 0Zm-1.5 0a2 2 0 0 0-2-2c-1.1 0-1.98.9-2 2 0 1.1.9 2 2 2a2 2 0 0 0 2-2Z" fill="#1E4B6F"/><defs><linearGradient id="al13qf4kh" x1="11" y1="7" x2="13.25" y2="7" gradientUnits="userSpaceOnUse"><stop stop-color="#AEC71D"/><stop offset="1" stop-color="#849830"/></linearGradient><linearGradient id="bl13qf4kh" x1="7" y1="7" x2="10.38" y2="7" gradientUnits="userSpaceOnUse"><stop stop-color="#AEC71D"/><stop offset="1" stop-color="#849830"/></linearGradient><linearGradient id="cl13qf4kh" x1="11" y1="10" x2="14.38" y2="10" gradientUnits="userSpaceOnUse"><stop stop-color="#AEC71D"/><stop offset="1" stop-color="#849830"/></linearGradient><linearGradient id="dl13qf4kh" x1="10" y1="6" x2="11.13" y2="6" gradientUnits="userSpaceOnUse"><stop stop-color="#AEC71D"/><stop offset="1" stop-color="#849830"/></linearGradient><linearGradient id="el13qf4kh" x1="12" y1="8" x2="14.25" y2="8" gradientUnits="userSpaceOnUse"><stop stop-color="#AEC71D"/><stop offset="1" stop-color="#849830"/></linearGradient></defs></svg>