<!-- by TradingView --><svg width="18" height="18" viewBox="0 0 18 18" xmlns="http://www.w3.org/2000/svg"><path fill="#F0F3FA" d="M0 0h18v18H0z"/><path d="M5 7.2v4.47s.03.74.9 1.68l-.3.65s-1.2-1-1.2-2.4V7.2s.13-.2.3-.2c.1 0 .2.04.3.2ZM13 7.2v4.58s-.03.63-.9 1.57l.3.65s1.2-.9 1.2-2.29v-4.5s-.12-.2-.3-.2c-.09-.02-.2.03-.3.19ZM6 4s-.73.43-.95 1.18l-.05.2-.06-.2C4.73 4.43 4 4 4 4c.41.62.6 1.3.63 1.65C4.65 6 5 6 5 6s.36 0 .38-.35c.02-.34.2-1.03.62-1.65ZM14 4s-.72.43-.95 1.18l-.05.2-.05-.2C12.71 4.43 12 4 12 4c.41.62.6 1.3.62 1.65.02.35.38.35.38.35s.36 0 .38-.35c.02-.34.2-1.03.62-1.65Z" fill="#0404E6"/><path d="M12 14.13c-.76.54-1.85.87-2.9.87-1.13 0-2.3-.33-3.1-.97l.18-.33c.74.61 1.84.98 2.92.98.98 0 2-.3 2.72-.82l.18.27Z" fill="#713235"/><path d="M6 4.49a3.77 3.77 0 0 1 6 .03l-.2.48a3.53 3.53 0 0 0-2.92-1.45c-1.07 0-1.96.52-2.7 1.42L6 4.49Z" fill="#0404E6" fill-opacity=".5"/><path d="M4.4 6H5v.65h-.6V6ZM13 6h.6v.65H13V6Z" fill="#C88F47"/><path d="M9.8 10.1v.87c-.12.4-.1.56.01.95l.05.06V12c.39 0 .6-.66.55-.99.19-.73.56-1.76.52-2.42l-.07-1.12c.04-.37.14-.77.07-1.12l-.1-.05-.33-.09c-.07.32-.17.06-.2.19-.05.13 0 .14-.02.31-.05.4.06 1.3.06 1.72 0 .35.02.64-.16.87l-.38.8Z" fill="#C74716"/><path d="M8.67 6.21c.08.09-.07.16.06.21l.15.05c-.12.1.12.09-.2.08-.3-.01-.33-.32-.67-.13.62.36.43.33-.8.17l.35-.18c-.35.01-1.06-.04-1.34.08 0 .08-.02.08-.02.12 0 .13.04.17.1.24l.03-.25c.64-.04.55.15 1.02.38 1.21.22.9.22.4.7l1.12-.05c.43.03.51.18.32.57l.24.21c.17-.08.05 0 .08-.11.24-.25.32-.49.3-.88-.05-.55-.1-.8-.3-1.2-.47-.06-.51-.22-.84 0Z" fill="#B98C28"/><path d="M9.61 11.54c-3.17-.02-.36.31 0 0Zm-1.83-.37c-.6-.1-.16-.18-.63-.26.15.44.26.6 0 1.08.4-.09.2-.12.63-.14h.7c1.32.02.73.06 1.38.14 0-.35.12-.5-.25-.45.07-.4.01-.02-.03-.25l-.13-.67c-.58.13-.6-.16-1.5.06a.7.7 0 0 1-.02.14c-.07.27-.01.21-.15.35Z" fill="#B95735"/><path d="M8.73 8.48c-.36.31.1.74-.4 1.4-.16.22-.18.13-.49.18l-.06 1.1c.14-.13.08.01.15-.25.05-.2 1.31-.47 1.63.4.18 1.15.18-.09.25-.34l-.2-.07c0-.15 0-.56-.03-.66-.08-.27-.06-.13-.38-.25-.1-.11-.1-.2-.1-.3 0-.83.33-.27.33-1.29-.36-.1-.69.1-.7.08Z" fill="#B98937"/><path d="M9.5 8.3c.2-.02.23-.02.35-.13L9.8 10.1l.44-.66c.19-.23.18-.65.18-1 0-.42-.08-1.34-.04-1.74.02-.17.01-.1.05-.24.04-.12.01.1.08-.2l.42.09c-.3-.46-1.33-.19-1.8-.25l-.04.18.36-.04c.28.63.58 1.52.06 2.06Z" fill="#A88A56"/><path d="M9.73 6.2c.31.92.06 2.15.2 3.25.55-.9.16-1.51.25-3.26l-.45.01Z" fill="#180F97"/><path d="m10.38 10.96-.28.14c.08.35.17.4.07.71.17-.22.3-.5.58-.68.27-.18.75-.63 1.25-.52v-.48c-.32.02-.92-.01-1.18.24-.2.18-.37.4-.44.6Z" fill="#944F30"/><path d="M6.13 10.22c-.12.73.21 1.43.83 1.4.15-.27-.81-1.17-.44-1.58l.08-.13c.06-.27.15-.34-.06-.33-.19.15-.37.37-.4.64Z" fill="#4B0F6F"/><path d="M7.24 9.02c0 .07-.02.12-.1.2-.43.08-.32-.1-.6.36.22 0 .12.06.06.33l.49-.01.13.12c.41.22.22-.13.41-.14.12 0 .23-.13.1-.54 0-.03-.16-.46-.19-.5-.2-.03-.2.01-.3.18Z" fill="#B04F4D"/><path d="M11.36 6.53c.05.5-.03.54.2.9.13.16.07.08.28.08.14-.41.24-.87-.01-1.29a.69.69 0 0 0-.47.31Z" fill="#C84827"/><path d="M7.36 6.98c-.16-.08-.08-.06-.24-.23-.2-.22.05-.15-.3-.18l-.52.03-.03.26c.05.27.35.54.56.72.32.25.6.31.92.1.1-.12 0-.07.19-.11.55-.17 1.18.28 1.58-.27-.24-.33-1.21-.2-2.16-.32Z" fill="#D5320E"/><path d="m11.37 7.4.2.02c-.22-.35-.15-.38-.2-.9-.31 0-.1-.06-.44-.18.06.34-.03.75-.08 1.12-.08 1.8.08.08.52-.06Z" fill="#B89527"/><path d="M6.96 11.62c.07.04.12-.02.07.26.06.12-.06.05.13.12.25-.48.14-.67-.01-1.1-.54.26-.82-.33-.63-.86-.3.13-.12.78-.01.93.17.23.44.3.45.65Z" fill="#B2332C"/><path d="m9.61 11.54-1.6-.01c-.62-.01-.39.03-.48.1.07.16-.02.08.15.15l1.87-.01.06-.23Z" fill="#2A1885"/><path d="M8 6.42h-.44l-.35.17c.55.07 1.49.37 1.93.12-.1-.25.08-.15-.19-.13-.1 0-.01.1-.34.04l-.6-.2Z" fill="#5E532A"/><path d="M7.04 11.86c.05-.29 0-.2-.08-.24-.63.02-.95-.68-.83-1.4-.02.01-.2-.05-.1.62.1.6.42.97 1 1.02Z" fill="#958970"/></svg>