<!-- by TradingView --><svg width="18" height="18" viewBox="0 0 18 18" xmlns="http://www.w3.org/2000/svg"><path fill="#F0F3FA" d="M0 0h18v18H0z"/><path fill-rule="evenodd" d="m3 4 4.2 1.99.44-.99h2.85l.4.99L15 4l-.21 1.34-.65.32-.2 1.07-.71.37-.25 1.16-.98.39v4.17l-1.23.88v.34L9.03 15l-1.73-.96v-.34L6 12.82V8.65l-.88-.4-.27-1.15-.7-.37-.2-1.07-.67-.32L3 4Zm4 5.9V9L8.65 8h.74l1.61.99v.91l-.62.34v1.12H9.8l-.46-.5V10h.77l.58-.46H7.31l.49.46h.85v.86l-.48.5h-.59v-1.12L7 9.9Z" fill="#C5872F" fill-opacity=".6"/></svg>