<!-- by TradingView --><svg width="18" height="18" viewBox="0 0 18 18" xmlns="http://www.w3.org/2000/svg"><path fill="#F0F3FA" d="M0 0h18v18H0z"/><path d="m7 4 1 1.26L6.68 6.4l.73.86.38-.95c.12-.27.3-.5.54-.7H9v-.3h1.21c.18.03 1.32.5 1.36.53.24.24.1.7.1.7l.2.47-.06.07.51.9-.14.11c-.05.05-.05.17-.05.17l.25 1.23-.73-.08v.57l1.06-.33L14 13H4.94L7.2 8h.19L6.33 6.65 5 7.7l-1-1.4L7 4Zm-.37 2.46h-.02c-.06.05-.17.19-.1.28l4.11 4.98.38-.16-.65-.83 1.06-.5v-.88l-.9-.06s-.13-.07-.06-.14l1.72.14L12 8.22s-.1-.23.13-.29l-.44-.79c.05-.03.07-.09.05-.14l-.2-.47s-1.18-.08-1.78.6L9.69 10 6.63 6.46Z" fill="#9C9897"/></svg>